
<?xml version="1.0" standalone="no"?>
<!DOCTYPE svg PUBLIC "-//W3C//DTD SVG 1.1//EN" "http://www.w3.org/Graphics/SVG/1.1/DTD/svg11.dtd" >
<!--
2013-9-30: Created.
-->
<svg>
<metadata>
Created by iconfont
</metadata>
<defs>

<font id="iconfont" horiz-adv-x="1024" >
  <font-face
    font-family="iconfont"
    font-weight="500"
    font-stretch="normal"
    units-per-em="1024"
    ascent="896"
    descent="-128"
  />
    <missing-glyph />
    
    <glyph glyph-name="zhanghu" unicode="&#58984;" d="M954.8 755.96666667q54.9 0 87.75-27.9t32.85-84.6l0-499.5q0-24.3-9-45.9t-24.75-37.8-36.9-25.65-44.55-9.45l-784.8 0q-23.4 0-44.1 9t-36 23.85-24.3 34.65-9 42.3l0 510.3q0 48.6 29.7 79.65t83.7 31.05l779.4 0zM314.9 589.46666667q-17.1 0-32.4-6.3t-27-17.55-18.45-27-6.75-33.75 6.75-33.3 18.45-27 27-18.45 32.4-6.75q18.9 0 34.65 6.75t27 18.45 18 27 6.75 33.3q0 36.9-24.3 60.75t-62.1 23.85zM456.2 278.06666667q0 17.1-6.75 32.85t-18 27-27 18-32.85 6.75l-112.5 0q-35.1 0-59.4-24.75t-24.3-59.85l0-3.6 0-81 280.8 0 0 81 0 3.6zM873.8 188.96666667q18 0 26.55 9t8.55 21.6-9.9 22.05-27.9 9.45l-268.2 0q-18 0-27-9.45t-9-22.05 9-21.6 26.1-9l271.8 0zM874.7 305.06666667q18 0 26.1 9t8.1 21.6q0 13.5-7.65 22.5t-25.65 9l-275.4 0q-18 0-26.1-9t-8.1-22.5q0-12.6 7.65-21.6t25.65-9l275.4 0zM875.6 419.36666667q13.5 0 23.4 9t9.9 21.6-9.9 20.25-23.4 7.65l-182.7 0q-13.5 0-22.95-7.65t-9.45-20.25 9.45-21.6 22.95-9l182.7 0z"  horiz-adv-x="1154" />

    
    <glyph glyph-name="anzhuo" unicode="&#58881;" d="M963.615476 548.915747q23.341923 0 39.579783-14.71556t16.23786-36.027751l0-299.38554q0-20.297325-16.23786-35.012885t-39.579783-14.71556l-18.267592 0q-23.341923 0-39.579783 14.71556t-16.23786 35.012885l0 299.38554q0 21.312191 16.23786 36.027751t39.579783 14.71556l18.267592 0zM140.558957 548.915747q23.341923 0 38.564917-14.71556t15.222994-36.027751l0-299.38554q0-20.297325-15.222994-35.012885t-38.564917-14.71556l-18.267592 0q-23.341923 0-39.579783 14.71556t-16.23786 35.012885l0 299.38554q0 21.312191 16.23786 36.027751t39.579783 14.71556l18.267592 0zM700.76512 784.364714q18.267592-8.11893 38.057484-22.327057t38.057484-33.490586 31.968286-42.116949 19.789892-48.206146l-576.444023 0q16.23786 53.787911 51.250745 88.293363t70.533204 54.802777l-51.758178 81.189299q-2.029732 2.029732-0.507433 7.611497t10.656095 11.670962q8.11893 7.104064 15.222994 6.596631t9.133796-2.537166l52.773044-83.219031q28.416255 13.193261 59.877108 20.297325t64.951439 7.104064q69.010904 0 128.888012-28.416255l53.787911 84.233898q2.029732 2.029732 7.611497 2.029732t16.745293-6.089197q10.148662-5.074331 11.670962-9.133796t-0.507433-6.089197zM417.61744 697.086217q13.193261 0 22.327057 9.133796t9.133796 22.327057-9.133796 22.327057-22.327057 9.133796-22.327057-9.133796-9.133796-22.327057 9.133796-22.327057 22.327057-9.133796zM667.274534 701.145682q13.193261 0 22.327057 9.133796t9.133796 22.327057-9.133796 22.327057-22.327057 9.133796-22.327057-9.133796-9.133796-22.327057 9.133796-22.327057 22.327057-9.133796zM828.638266 574.287403l1.014866-456.689807q0-22.327057-14.71556-37.550051t-36.027751-15.222994l-14.208127 0 0-142.081273q0-20.297325-14.71556-35.520318t-36.027751-15.222994l-29.431121 0q-20.297325 0-35.012885 15.222994t-14.71556 35.520318l0 142.081273-186.735388 0 0-142.081273q0-20.297325-14.71556-35.520318t-36.027751-15.222994l-29.431121 0q-20.297325 0-35.012885 15.222994t-14.71556 35.520318l0 142.081273-11.163529 0q-21.312191 0-36.027751 15.222994t-14.71556 37.550051l0 456.689807 572.384558 0z"  horiz-adv-x="1024" />

    
    <glyph glyph-name="weiruan" unicode="&#58892;" d="M454.656 32.768l-1.024 343.04 455.68-2.048 0-409.6zM453.632 752.64l455.68 68.608 0-378.88-455.68 0 0 310.272zM65.536 376.832l325.632-1.024 0-336.896-325.632 52.224 0 285.696zM65.536 442.368l0 251.904 325.632 52.224 0-304.128-325.632 0z"  horiz-adv-x="1024" />

    
    <glyph glyph-name="caret" unicode="&#58969;" d="M94.411 574.979l419.613-419.034 419.613 419.034-85.321 85.319-334.289-333.834-334.295 333.834z"  horiz-adv-x="1024" />

    
    <glyph glyph-name="minus" unicode="&#58997;" d="M64.782336 340.612864l892.371968 0 0-81.92-892.371968 0 0 81.92Z"  horiz-adv-x="1024" />

    
    <glyph glyph-name="orders" unicode="&#59036;" d="M439.643 180.021l-141.49 172.702-11.139-9.126 152.255-185.84 327.45 373.238-10.824 9.496zM863.525 738.814h-234.743c-4.35 18.926-13.924 36.301-27.996 50.372-19.772 19.772-46.061 30.662-74.023 30.662-27.962 0-54.251-10.889-74.024-30.662-14.072-14.072-23.645-31.445-27.995-50.372h-282.542v-760.657h769.32v760.657h-47.999zM346.499 687.157h123.685c0 0-0.087 14.613-0.104 24.939-0.001 1.083-0.002 2.117-0.002 3.066 0 9.499 2.348 18.445 6.478 26.31 0.549 1.045 1.117 2.078 1.728 3.083 0.059 0.097 0.125 0.191 0.185 0.288 9.978 16.2 27.872 27.004 48.294 27.004 31.305 0 56.685-25.379 56.685-56.685 0-0.29 0-0.588 0.001-0.891-0.003-10.301-0.049-27.115-0.049-27.115h123.829c21.703 0 39.301-15.19 39.301-33.929s-17.598-33.929-39.301-33.929h-360.73c-21.704 0-39.301 15.19-39.301 33.929s17.597 33.93 39.301 33.93zM863.525 26.158h-673.321v664.656h122.51c-1.172-0.854-2.315-1.748-3.413-2.695-10.641-9.187-16.502-21.578-16.502-34.892 0-13.314 5.859-25.706 16.502-34.892 10.038-8.665 23.248-13.438 37.2-13.438h360.73c13.951 0 27.162 4.772 37.2 13.437 10.642 9.187 16.501 21.578 16.501 34.892 0 13.313-5.859 25.706-16.501 34.892-1.101 0.95-2.243 1.843-3.416 2.697h122.512v-664.657zM509.665 690.484c4.899-3.316 10.856-5.259 17.201-5.257 4.227-0.001 8.29 0.861 11.974 2.421 5.529 2.341 10.211 6.231 13.526 11.136 3.316 4.899 5.259 10.856 5.258 17.201 0.001 4.227-0.861 8.29-2.421 11.975-2.341 5.528-6.231 10.21-11.136 13.525-4.899 3.316-10.856 5.259-17.201 5.257-4.227 0.001-8.291-0.861-11.975-2.421-5.528-2.341-10.21-6.231-13.525-11.136-3.316-4.899-5.259-10.856-5.257-17.201-0.001-4.227 0.861-8.29 2.421-11.974 2.339-5.528 6.23-10.209 11.135-13.525zM511.791 722.349c1.236 2.926 3.32 5.438 5.934 7.203 2.619 1.764 5.728 2.787 9.141 2.79 2.278-0.001 4.412-0.458 6.365-1.283 2.926-1.237 5.438-3.32 7.204-5.934 1.764-2.619 2.786-5.728 2.789-9.141-0.001-2.278-0.457-4.411-1.282-6.365-1.237-2.926-3.32-5.438-5.934-7.203-2.619-1.764-5.728-2.787-9.141-2.79-2.278 0.001-4.412 0.457-6.365 1.282-2.926 1.237-5.438 3.32-7.204 5.934-1.764 2.619-2.786 5.728-2.789 9.141 0.001 2.278 0.458 4.412 1.283 6.365z"  horiz-adv-x="1024" />

    
    <glyph glyph-name="youxiang" unicode="&#58906;" d="M512.012 329.465l415.548 346.226c-2.252 0.409-4.275 1.349-6.611 1.349h-817.875c-2.288 0-4.323-0.927-6.575-1.349l415.511-346.226zM958.134 639.855c0 3.901-1.072 7.514-2.252 11.066l-294.569-245.524 295.014-295.074c0.759 2.974 1.806 5.84 1.806 9.055v520.477zM68.154 650.957c-1.143-3.577-2.288-7.141-2.288-11.102v-520.465c0-3.251 1.12-6.105 1.854-9.079l295.11 295.098-294.677 245.548zM632.583 381.507l-108.698-90.539c-3.408-2.902-7.622-4.299-11.873-4.299-4.214 0-8.453 1.397-11.897 4.299l-108.601 90.491-297.434-297.422c2.926-0.771 5.828-1.842 8.995-1.842h817.887c3.227 0 6.129 1.060 9.115 1.842l-297.495 297.471z"  horiz-adv-x="1024" />

    
    <glyph glyph-name="mima" unicode="&#58883;" d="M551.832 750.512c-112.128 111.246-293.358 110.527-404.603-1.592-111.312-112.19-110.533-293.347 1.594-404.592 88.266-87.564 218.924-104.632 325.008-53.767l80.13-79.5 134.873 0.534 0.533-134.864 134.899 0.499 0.533-134.865 134.864 0.534-0.528 134.863-350.967 348.194c50.026 106.474 31.928 236.991-56.336 324.554zM350.329 547.422c-41.716-42.047-109.612-42.38-151.726-0.6-42.115 41.779-42.314 109.677-0.599 151.719 41.716 42.046 109.611 42.376 151.725 0.598 42.113-41.78 42.317-109.672 0.6-151.717z"  horiz-adv-x="1024" />

    
    <glyph glyph-name="34" unicode="&#58916;" d="M65 407.558l355.126 4.001v330.885l-355.126-52.005v-282.881zM94.8 664.685l295.526 43.274v-266.934l-295.526-3.333v226.993zM462.251 752.906v-340.532l496.749 6.024v412.602l-496.749-78.094zM929.2 447.834l-437.149-5.296v284.89l437.149 68.723v-348.317zM65 77.546l355.126-52.005v330.885l-355.126 4.002v-282.882zM94.8 330.293l295.526-3.332v-266.935l-295.526 43.275v226.992zM462.251 15.079l496.749-78.079v412.588l-496.749 6.038v-340.547zM492.051 325.462l437.149-5.312v-348.302l-437.149 68.709-0 284.905z"  horiz-adv-x="1024" />

    
    <glyph glyph-name="shijian2" unicode="&#58901;" d="M512.672312-142.642352c-245.069555 0-443.74036 198.670805-443.74036 443.74343 0 245.069555 198.670805 443.74343 443.74036 443.74343 245.074671 0 443.74343-198.672852 443.74343-443.74343C956.415742 56.028453 757.746984-142.642352 512.672312-142.642352zM512.672312 678.264113c-208.300117 0-377.160989-168.860872-377.160989-377.163035s168.860872-377.165082 377.160989-377.165082c208.302163 0 377.163035 168.862919 377.163035 377.165082S720.974475 678.264113 512.672312 678.264113zM726.380602 244.374098 501.720889 244.374098c-6.456039 0-12.217253 2.741437-16.359596 7.059789-4.318352 4.142343-7.063883 9.904581-7.063883 16.361643L478.29741 538.355643c0 12.571317 10.190083 22.7614 22.7614 22.7614l22.598694 0c12.56927 0 22.759353-10.190083 22.759353-22.7614l0-225.863121 179.963745 0c12.56927 0 22.759353-10.190083 22.759353-22.7614l0-22.598694C749.138932 254.563158 738.949872 244.374098 726.380602 244.374098z"  horiz-adv-x="1024" />

    
    <glyph glyph-name="macclient" unicode="&#58946;" d="M651.264 365.536c-8.192-16.384-12.288-24.576-20.48-40.96-12.288-20.48-32.768-49.152-57.344-49.152-20.48 0-28.672 12.288-57.344 12.288-28.672 0-36.864-12.288-57.344-12.288-24.576 0-40.96 24.576-57.344 45.056-36.864 57.344-40.96 126.976-20.48 163.84 16.384 24.576 45.056 40.96 69.632 40.96 24.576 0 40.96-12.288 61.44-12.288 20.48 0 32.768 12.288 61.44 12.288 20.48 0 45.056-12.288 61.44-32.768C589.824 467.936 598.016 386.016 651.264 365.536zM557.056 553.952C569.344 566.24 577.536 586.72 573.44 607.2c-16.384 0-36.864-12.288-49.152-28.672C512 566.24 503.808 545.76 507.904 529.376 528.384 529.376 544.768 537.568 557.056 553.952zM266.24-130.08 757.76-130.08 266.24-130.08ZM512-7.2 512-130.08 512-7.2ZM950.272 771.04 73.728 771.04C45.056 771.04 20.48 746.464 20.48 717.792l0-630.784C20.48 58.336 45.056 33.76 73.728 33.76l876.544 0c28.672 0 53.248 24.576 53.248 53.248L1003.52 717.792C1003.52 746.464 978.944 771.04 950.272 771.04zM512 74.72c-24.576 0-40.96 16.384-40.96 40.96s16.384 40.96 40.96 40.96 40.96-16.384 40.96-40.96S536.576 74.72 512 74.72zM901.12 197.6l-778.24 0C110.592 197.6 102.4 205.792 102.4 218.08l0 450.56C102.4 680.928 110.592 689.12 122.88 689.12l778.24 0C913.408 689.12 921.6 680.928 921.6 668.64l0-450.56C921.6 205.792 913.408 197.6 901.12 197.6z"  horiz-adv-x="1024" />

    
    <glyph glyph-name="qq1" unicode="&#58910;" d="M928.461 191.411l-1.562-12.57-2.125-11.315-3.302-10.266-1.178-4.224-2.227-4.966-1.92-3.482-2.56-4.352-2.304-2.739-2.867-3.482-2.56-2.867-2.739-2.432-3.302-1.485-2.918-1.485-6.093-0.819-6.835 3.098-4.224 3.098-2.355 2.176-2.355 2.432-3.917 4.403-4.659 6.349-3.661 6.528-3.661 5.274-3.533 6.093-5.043 10.829-5.658 11.264-3.917-1.357-1.357-2.995-2.227-3.661-3.866-10.931c-8.448-22.579-18.842-43.955-31.77-64.154l-7.398-10.701-3.866-4.838-4.608-5.222-10.573-10.701 2.355-2.432 5.274-3.226 22.016-10.829 9.626-5.53 9.139-5.402 9.088-6.784 8.090-7.014 3.917-3.098 2.918-3.61 2.995-4.224 2.56-4.608 1.306-3.789 1.69-4.608 0.691-3.917 0.819-4.608-0.819-3.098v-3.098l-0.691-3.226-1.69-2.995-2.125-5.171-3.968-5.53-3.661-4.48-2.867-3.354-2.355-2.432-6.093-4.608c-30.515-23.066-80.512-28.109-117.248-29.978-46.438-2.355-90.957 6.042-135.296 19.021l-27.238 9.139-7.142 2.483-10.394 3.917c0 0-24.499 10.445-24.499 10.88l-24.422-10.445-10.317-3.866-7.091-2.432-27.238-9.139c0 0-13.312-3.917-13.363-3.917-43.264-12.621-88.909-17.101-133.786-13.363-34.509 2.867-83.251 11.366-111.539 32.768l-2.355 2.432-2.867 3.354-3.661 4.48-3.968 5.53-2.15 5.197-1.69 2.995-0.691 3.226v3.098l-0.819 3.046 0.819 4.608 0.691 3.917 1.69 4.608 1.306 3.789 2.56 4.608 2.995 4.173 2.918 3.661 3.917 3.098 8.090 7.014 9.088 6.784 9.139 5.402 9.626 5.53 22.016 10.829 5.274 3.226 2.355 2.432-10.573 10.701-4.608 5.222c0 0-3.738 4.736-3.866 4.838-17.229 21.811-29.901 48.614-39.168 74.803l-3.866 10.931-2.202 3.686-1.306 2.995-3.917 1.357-5.658-11.264-5.094-10.829-3.558-6.067-3.661-5.222-3.661-6.528-4.736-6.349-3.917-4.429-2.355-2.432-2.355-2.227-4.173-3.098-6.912-3.098-6.093 0.819-2.918 1.459-3.302 1.485-2.739 2.432-2.56 2.867-2.867 3.482-2.227 2.739-2.56 4.352-1.92 3.482-2.227 4.966-1.178 4.224-3.302 10.266-2.125 11.315-1.562 12.57-1.126 7.27v20.506c0 43.213 19.533 88.166 37.862 127.334l6.042 11.622 5.274 10.829 6.093 9.83 4.48 9.088 9.395 13.491 11.878 17.971 2.79 4.403 0.922 3.43-2.048 6.093-2.688 5.376-2.355 10.701-1.357 5.478v5.709l-0.691 4.608v4.531l0.691 5.274 0.819 4.301 1.741 8.755 2.227 8.525 2.125 7.834 3.226 7.578 3.661 6.349 2.842 5.965 3.226 5.658 4.966 8.397 2.432 5.53 2.304 16.154 1.485 10.701 1.69 13.235c4.173 21.376 9.882 42.522 16.486 63.36l2.918 8.525 3.712 9.139 7.578 17.664 4.48 8.397 5.402 9.574 5.094 8.269 5.043 9.318 7.219 8.653 6.093 8.32 7.398 8.653 7.526 7.885 7.578 7.578 9.011 7.834 4.736 2.867 4.608 3.866 9.754 6.912 11.264 7.398c0 0 11.494 6.707 11.494 6.784 125.389 72.499 332.621 55.014 422.272-68.275l7.219-8.653 5.043-9.318 5.171-8.269c18.278-32.205 40.602-78.72 40.602-116.685l1.69-13.235 1.485-10.701 2.304-16.154 2.432-5.53 4.966-8.397 3.226-5.658 2.867-5.965 3.661-6.349 3.226-7.578 2.048-7.834 2.227-8.525 1.741-8.755 0.819-4.301 0.691-5.274v-4.608l-0.691-4.608v-5.658l-1.306-5.53-2.432-10.701-2.739-5.402-1.997-6.093 0.922-3.43 2.739-4.48 11.878-17.971 9.446-13.491c0 0 4.096-8.397 4.403-9.011 27.11-55.347 63.744-123.494 54.17-187.469z"  horiz-adv-x="1024" />

    
    <glyph glyph-name="msnui-server" unicode="&#59032;" d="M955.636 644.785c-7.544 55.599-91.941 90.231-102.645 94.355l-160.020 64.986c-7.414 2.369-15.792-0.591-19.826-7.281-4.080-6.624-2.807-15.155 2.895-20.464 27.371-25.179 36.759-75.185 37.022-75.185 0-7.325-1.667-619.64-1.667-635.476 0-44.699-32.723-71.369-34.302-72.598-6.315-4.912-8.159-13.511-4.429-20.441 2.939-5.615 8.817-8.992 15.044-8.992 1.58 0 3.159 0.22 4.694 0.659 7.501 2.104 138.087 51.366 151.071 55.621 112.69 36.67 113.918 101.658 113.918 104.377 0.351 210.86 1.625 325.37 2.369 391.695 0.965 90.712 1.007 92.467-4.124 128.745zM529.004 811.89h-351.273c-63.253 0-114.62-50.095-114.62-111.682v-631.769c0-61.543 51.366-111.638 114.62-111.638h351.273c63.166 0 114.576 50.095 114.576 111.638v631.769c-0.001 61.586-51.411 111.682-114.576 111.682zM334.681 95.066c-38.074 0-69.043 30.136-69.043 67.18 0 37.087 30.969 67.268 69.043 67.268 38.075 0 69.131-30.18 69.131-67.268 0-37.045-31.056-67.18-69.131-67.18zM552.428 386.593c0-28.335-21.495-51.387-47.988-51.387h-302.232c-26.495 0-48.077 23.051-48.077 51.387v122.121h398.297v-122.121zM552.428 541.788h-398.297v122.209c0 28.336 21.581 51.41 48.077 51.41h302.232c26.493 0 47.988-23.073 47.988-51.41v-122.209z"  horiz-adv-x="1024" />

    
    <glyph glyph-name="guanbi" unicode="&#58919;" d="M821.925167-9.678038c-13.103436-13.103436-34.349319-13.103436-47.452755 0l-572.529585 572.529585c-13.103436 13.103436-13.103436 34.349319 0 47.452755l0 0c13.103436 13.103436 34.349319 13.103436 47.452755 0l572.529585-572.529585C835.029626 24.671281 835.029626 3.426421 821.925167-9.678038L821.925167-9.678038zM201.942827-9.677015c-13.103436 13.103436-13.103436 34.349319 0 47.452755l572.529585 572.529585c13.103436 13.103436 34.349319 13.103436 47.452755 0l0 0c13.103436-13.103436 13.103436-34.349319 0-47.452755l-572.529585-572.529585C236.292146-22.781474 215.047286-22.781474 201.942827-9.677015L201.942827-9.677015z"  horiz-adv-x="1024" />

    
    <glyph glyph-name="jiahao" unicode="&#58888;" d="M62.929 424.444h901.218v-75.104h-901.218v75.104zM475.986 837.501h75.101v-901.219h-75.101v901.219z"  horiz-adv-x="1024" />

    
    <glyph glyph-name="kuaijiejian" unicode="&#58968;" d="M881.231 510.359h-339.692c0 103.089 38.88 108.48 103.311 117.415 65.465 9.083 155.151 21.563 155.151 177.969 0 16.32-13.219 29.539-29.539 29.539s-29.539-13.219-29.539-29.539c0-104.972-41.465-110.732-104.234-119.446-65.095-9.009-154.228-21.415-154.228-175.939h-339.692c-61.181 0-110.769-49.625-110.769-110.769v-295.385c0-61.145 49.588-110.769 110.769-110.769h738.461c61.181 0 110.769 49.625 110.769 110.769v295.385c0 61.145-49.588 110.769-110.769 110.769zM696.615 399.59h73.846v-73.846h-73.846v73.846zM807.385 288.821v-73.846h-73.846v73.846h73.846zM585.846 399.59h73.846v-73.846h-73.846v73.846zM696.615 288.821v-73.846h-73.846v73.846h73.846zM475.077 399.59h73.846v-73.846h-73.846v73.846zM585.846 288.821v-73.846h-73.846v73.846h73.846zM364.308 399.59h73.846v-73.846h-73.846v73.846zM475.077 288.821v-73.846h-73.846v73.846h73.846zM253.539 399.59h73.846v-73.846h-73.846v73.846zM364.308 288.821v-73.846h-73.846v73.846h73.846zM142.769 399.59h73.846v-73.846h-73.846v73.846zM253.539 288.821v-73.846h-73.846v73.846h73.846zM216.615 104.206h-73.846v73.846h73.846v-73.846zM770.461 104.206h-516.923v73.846h516.923v-73.846zM881.231 104.206h-73.846v73.846h73.846v-73.846zM881.231 325.744h-73.846v73.846h73.846v-73.846z"  horiz-adv-x="1024" />

    
    <glyph glyph-name="shiliangzhinengduixiang3" unicode="&#58929;" d="M406.732 277.1c81.011-80.591 174.82-157.651 211.642-120.41 52.724 53.198 85.172 99.552 202.159 6.057 116.987-93.6 27.653-156.546-23.442-208.112-58.942-59.522-279.641-4.161-498.394 213.378-218.7 217.649-275.638 438.401-216.645 497.923 51.094 51.568 113.248 141.584 207.427 25.019 94.178-116.513 48.247-149.435-4.478-202.633-36.817-37.188 40.719-130.578 121.729-211.221v0zM524.247 661.721c0 0-24.442 3.792-41.557-13.38-17.646-17.646-18.384-48.037 0.159-66.685 10.957-11.008 26.443-13.325 26.443-13.325 30.181-5.635 75.639-15.275 123.99-63.733s57.942-94.022 63.578-124.257c0 0 2.37-15.538 13.325-26.493 18.54-18.593 48.932-17.804 66.526-0.211 17.118 17.171 13.325 41.716 13.325 41.716-9.588 61.205-39.189 125.152-90.019 176.087-50.882 50.989-114.669 80.641-175.771 90.281v0zM753.586 625.113c88.649-88.807 126.467-189.677 114.141-271.373 0 0-4.267-25.917 12.59-42.821 18.964-19.017 49.091-17.909 66.843-0.159 11.429 11.483 13.905 30.076 13.905 30.076 10.166 70.635-2.634 212.694-140.742 351.117-138.159 138.425-279.905 151.225-350.329 141.059 0 0-18.542-2.477-29.972-13.905-17.749-17.804-18.855-47.986 0.159-67.001 16.857-16.908 42.666-12.59 42.666-12.59 81.428 12.38 182.036-25.543 270.738-114.403v0z"  horiz-adv-x="1024" />

    
    <glyph glyph-name="fanhuidingbu" unicode="&#58898;" d="M512.038 706.923c-73.633 0-133.091-59.652-133.091-132.976 0-73.517 59.458-133.053 133.091-133.053 73.477 0 132.976 59.535 132.976 133.053 0 73.323-59.497 132.976-132.976 132.976zM512 476.547c-53.827 0-97.246 43.691-97.246 97.401 0 53.594 43.419 97.246 97.246 97.246 53.633 0 97.168-43.652 97.168-97.246 0-53.749-43.535-97.401-97.168-97.401zM580.74 90.515c-18.603-23.728-37.050-34.175-54.448-38.604-4.894-1.165-9.631-1.904-14.291-2.369-4.622 0.466-9.437 1.126-14.291 2.369-17.398 4.427-35.885 14.875-54.487 38.604 0 0-96.042-84.974-12.893-182.141l40.351 37.826 40.506-63.109v-2.291l0.078-0.078 0.738 1.126 0.66-1.126 0.078 0.078v2.291l40.583 63.109 40.273-37.826c83.187 97.207-12.854 182.141-12.854 182.141zM587.77-51.236l-36.585 41.089-39.186-55.498-39.186 55.498-36.623-41.089c-33.826 69.905 10.019 100.508 10.019 100.508 17.515-21.244 23.769-21.088 48.429-25.788 2.407-0.778 9.826-0.893 16.583-1.36v-0.116c0.234 0 0.544 0.038 0.816 0.078 0.234-0.038 0.506-0.078 0.778-0.078v0.116c6.796 0.466 14.176 0.621 16.583 1.36 24.623 4.699 30.875 4.544 48.467 25.788-0.038 0 43.729-30.564 9.903-100.508zM734.647 402.097c124.469 289.407-180.588 462.965-222.647 485.181-42.059-22.214-347.039-195.773-222.647-485.181 0 0-185.831-141.829 18.485-372.943l117.053 153.714 56.779-56.701 30.331-5.903 30.369 5.903 56.779 56.701 117.053-153.714c204.317 231.075 18.447 372.943 18.447 372.943zM715.074 87.952l-113.169 150.879-73.205-73.205-16.699-4-16.699 4-73.205 73.205-113.13-150.879c-149.753 170.801 24.389 304.010 24.389 304.010-114.217 289.019 136.665 414.343 178.646 438.577 41.982-24.234 292.902-149.557 178.646-438.577 0-0.038 174.18-133.207 24.428-304.010z"  horiz-adv-x="1024" />

    
    <glyph glyph-name="mima1" unicode="&#59026;" d="M500.363636 206.909091l23.272727 0C542.906182 206.909091 558.545455 191.269818 558.545455 172l0-162.909091c0-19.269818-15.639273-34.909091-34.932364-34.909091l-23.272727 0c-19.293091 0-34.909091 15.639273-34.909091 34.909091l0 162.909091C465.454545 191.269818 481.070545 206.909091 500.363636 206.909091zM884.363636 323.272727l0-419.746909C884.363636-121.678545 863.511273-142.181818 837.818182-142.181818L186.181818-142.181818c-25.669818 0-46.545455 20.503273-46.545455 45.707636L139.636364 323.272727 884.363636 323.272727M954.181818 393.090909 69.818182 393.090909l0-489.565091C69.818182-160.288 121.902545-212 186.181818-212l651.636364 0c64.279273 0 116.363636 51.712 116.363636 115.525818L954.181818 393.090909 954.181818 393.090909zM861.090909 393.090909l-69.818182 0 0 69.818182c0 156.997818-131.095273 279.272727-279.272727 279.272727-151.831273 0-279.272727-127.418182-279.272727-279.272727l0-69.818182L162.909091 393.090909l0 69.818182C162.909091 653.256727 321.652364 812 512 812c187.950545 0 349.090909-152.273455 349.090909-349.090909L861.090909 393.090909z"  horiz-adv-x="1024" />

    
    <glyph glyph-name="shouz" unicode="&#58939;" d="M381.242696-211.999977l-254.337657 317.698294c0 0-12.851149 118.53746 101.722275 68.603395 66.109889-29.666333 89.702296-91.940058 89.702296-91.940058l2.365634 483.932057c0 0 68.347651 101.914084 127.808189 0l1.086913-306.381611c0 0 73.910088 100.571426 160.863133-7.032967 0 0 65.214784 109.586411 156.835161-5.306693 0 0 64.959039 126.721276 130.173823-10.997003l0-384.639352c0 0-3.772228-29.986013-56.647351-63.936062L381.242696-211.999977zM383.480458 812C241.606336 812 126.521423 696.915088 126.521423 555.040965c0-95.200797 52.363635-177.358637 129.278718-221.730265L255.800142 412.71929C216.031911 447.94806 190.457486 498.77723 190.457486 556.063942 190.457486 662.069933 276.45149 748.063938 382.457481 748.063938s191.999996-85.994004 191.999996-191.999996c0-56.135863-24.551448-106.1978-62.913085-141.298698l0-81.262735c76.659339 44.499499 128.895102 126.529468 128.895102 221.538457C640.439494 696.915088 525.354581 812 383.480458 812z"  horiz-adv-x="1024" />

    
    <glyph glyph-name="jinlingyingcaiwangtubiao100" unicode="&#59139;" d="M904.576 404.864h-49.075c-4.915 14.49-10.726 28.57-17.357 42.086 17.715 17.715 30.054 30.054 34.586 34.637 17.741 17.69 21.376 35.661 21.299 47.59-0.205 27.622-19.302 46.925-21.274 48.819l-69.248 69.299c-2.15 2.15-21.837 20.992-49.51 20.992-16.896 0-33.075-7.27-46.797-20.941l-34.893-34.867c-13.44 6.554-27.494 12.314-42.035 17.229v50.099c0 48.87-40.448 67.507-68.045 68.122h-98.355c-27.264-0.589-67.814-19.2-67.814-68.122v-50.125c-14.413-4.89-28.442-10.675-41.958-17.229l-35.328 35.302c-13.517 13.517-29.645 20.685-46.592 20.685-27.366 0-47.334-18.278-49.818-20.685l-69.504-69.53c-18.842-19.686-34.33-61.491 0.307-96.154l35.123-35.149c-6.605-13.491-12.39-27.571-17.357-42.086h-49.818c-48.922 0-67.584-40.55-68.198-68.25v-98.33c0.589-27.213 19.226-67.738 68.198-67.738h49.587c4.966-14.694 10.778-28.851 17.357-42.368l-34.893-34.944c-34.611-34.56-19.149-76.39 0-96.435l69.504-69.478c2.176-2.099 22.144-20.429 49.536-20.429 16.973 0 33.101 7.168 46.566 20.71l34.79 34.79c13.645-6.682 27.878-12.544 42.496-17.51v-48.538c0-53.888 44.518-68.147 68.224-68.147h97.997c27.341 0 68.045 18.15 68.045 68.147v48.614c14.746 4.992 28.979 10.854 42.573 17.485 17.51-17.562 29.696-29.722 34.227-34.202 17.485-17.613 35.302-21.325 47.155-21.325 27.853 0 47.334 19.302 49.254 21.274l69.222 69.248c19.354 19.379 35.302 61.030 0 96.41l-34.381 34.381c6.63 13.619 12.442 27.802 17.357 42.368h48.845c25.062 0 40.294 10.138 48.666 18.637 19.354 19.661 19.507 46.771 19.456 49.51v97.92c-0 27.418-18.15 68.224-68.122 68.224zM512.819 144.077c-79.411 0-144 64.589-144 144s64.589 144 144 144 144-64.589 144-144c0-79.411-64.614-144-144-144z"  horiz-adv-x="1024" />

    
    <glyph glyph-name="fenlei" unicode="&#58890;" d="M62 654.035c0 99.392 80.661 179.965 179.965 179.965h540.069c99.392 0 179.965-80.661 179.965-179.965v-540.069c0-99.392-80.661-179.965-179.965-179.965h-540.069c-99.392 0-179.965 80.661-179.965 179.965v540.069zM376.999 654c0-24.853 20.018-45.001 44.801-45.001h405.398c24.743 0 44.801 19.974 44.801 45.001v0c0 24.853-20.018 45.001-44.801 45.001h-405.398c-24.742 0-44.801-19.974-44.801-45.001v0zM376.999 384c0-24.853 20.018-45.001 44.801-45.001h405.398c24.743 0 44.801 19.974 44.801 45.001v0c0 24.853-20.018 45.001-44.801 45.001h-405.398c-24.742 0-44.801-19.974-44.801-45.001v0zM376.999 114c0-24.853 20.018-45.001 44.801-45.001h405.398c24.743 0 44.801 19.974 44.801 45.001v0c0 24.853-20.018 45.001-44.801 45.001h-405.398c-24.742 0-44.801-19.974-44.801-45.001v0zM219.5 316.5c37.279 0 67.5 30.221 67.5 67.5s-30.221 67.5-67.5 67.5c-37.279 0-67.5-30.221-67.5-67.5 0-37.279 30.221-67.5 67.5-67.5zM219.5 46.5c37.279 0 67.5 30.221 67.5 67.5s-30.221 67.5-67.5 67.5c-37.279 0-67.5-30.221-67.5-67.5 0-37.279 30.221-67.5 67.5-67.5zM219.5 586.5c37.279 0 67.5 30.221 67.5 67.5s-30.221 67.5-67.5 67.5c-37.279 0-67.5-30.221-67.5-67.5 0-37.279 30.221-67.5 67.5-67.5z"  horiz-adv-x="1024" />

    
    <glyph glyph-name="mima2" unicode="&#58965;" d="M780.993942 392.671633l-14.94948 0 0 0L631.291408 392.671633l0 0L376.921024 392.671633 376.921024 542.357793c0 49.581232 60.318784 104.745622 134.659933 104.745622 74.368778 0 134.754077-55.165414 134.754077-104.745622l0-36.789904c0-0.214894 0-0.435928 0-0.645706 0-0.199545 0-0.418532 0-0.650823l0-6.840802 0.530073 0c3.579525-25.388227 25.418926-44.89449 51.773154-44.89449 26.446325 0 48.220235 19.506263 51.867298 44.89449l0.595564 0 0 44.926212c0 115.713418-107.280352 209.525014-239.518119 209.525014-132.210138 0-239.457744-93.812619-239.457744-209.525014l0-149.686161-29.960359 0c-49.549509 0-89.74907-40.205701-89.74907-89.787956l0-359.218338c0-49.583279 40.199561-89.773629 89.74907-89.773629l538.831089 0c49.617048 0 89.781816 40.190351 89.781816 89.773629L870.777805 302.883677C870.775758 352.465932 830.61099 392.671633 780.993942 392.671633zM556.518425 61.148054l0-40.933271c0-25.716708-20.1182-46.550199-44.936445-46.550199-24.75787 0-44.910862 20.833491-44.910862 46.550199l0 40.933271c-35.361369 16.570397-59.887972 52.175313-59.887972 93.429903 0 57.116859 46.962591 103.433744 104.798834 103.433744 57.896618 0 104.792695-46.316885 104.792695-103.433744C616.374674 113.323367 591.913563 77.718451 556.518425 61.148054z"  horiz-adv-x="1024" />

    
    <glyph glyph-name="shandian" unicode="&#58914;" d="M540.861328 745.955818l281.392832-90.028433-233.277998-222.671429 165.945473-103.134939L211.354686-147.164343l146.727783 388.044874-156.337651 97.405447L540.861328 745.955818"  horiz-adv-x="1024" />

    
    <glyph glyph-name="sousuo" unicode="&#58927;" d="M956.646498-137.538101c-12.278651-12.300141-32.188096-12.300141-44.466748 0L722.122113 52.846994c-70.532403-63.808258-163.689083-102.996792-266.207991-102.996792-219.682351 0-397.770376 178.397063-397.770376 398.459061 0 220.059951 178.089048 398.453944 397.770376 398.453944 219.680305 0 397.767306-178.393993 397.767306-398.453944 0-94.66708-33.102932-181.50075-88.145549-249.862721l191.110619-191.438077C968.926172-105.294746 968.926172-125.237961 956.646498-137.538101zM455.914122 694.791531c-191.026708 0-345.886705-155.125033-345.886705-346.483292 0-191.357236 154.859997-346.485339 345.886705-346.485339 191.029778 0 345.888751 155.129126 345.888751 346.485339C801.802874 539.665475 646.9439 694.791531 455.914122 694.791531z"  horiz-adv-x="1024" />

    
    <glyph glyph-name="mima4" unicode="&#58922;" d="M510.938 351.363c-27.658 0-50.069-22.409-50.069-50.070 0-14.828 6.446-28.146 16.689-37.313v-46.132c0-18.437 14.944-33.382 33.381-33.382 18.433 0 33.381 14.945 33.381 33.382v46.132c10.244 9.168 16.69 22.485 16.69 37.313-0.001 27.661-22.414 50.070-50.072 50.070v0zM744.602 501.567h-33.382v83.447c0 110.618-89.66 200.274-200.283 200.274s-200.283-89.656-200.283-200.274v-83.447h-33.381c-46.095 0-83.451-37.357-83.451-83.447v-317.104c0-46.088 37.357-83.443 83.451-83.443h467.326c46.076 0 83.451 37.353 83.451 83.443v317.104c0.001 46.092-37.374 83.447-83.45 83.447v0zM510.938 751.909c92.171 0 166.902-74.726 166.902-166.894v-83.447h-333.782v83.447h-0.023c0 92.167 74.732 166.894 166.902 166.894v0zM794.671 101.019c0-27.658-22.412-50.066-50.069-50.066h-467.326c-27.659 0-50.070 22.408-50.070 50.066v317.1c0 27.659 22.412 50.070 50.070 50.070h467.326c27.658 0 50.069-22.412 50.069-50.070v-317.1zM794.671 101.019z"  horiz-adv-x="1024" />

    
    <glyph glyph-name="yonghu1" unicode="&#58912;" d="M512.714496 273.219168c-150.57998 0-273.090483 120.851853-273.090483 269.390416S362.134516 812 512.714496 812C663.294475 812 785.804979 691.148147 785.804979 542.609584S663.294475 273.219168 512.714496 273.219168zM512.714496 773.876548c-129.55339 0-234.941514-103.729472-234.941514-231.266964s105.413641-231.266964 234.941514-231.266964c129.55339 0 234.967031 103.729472 234.967031 231.266964S642.267886 773.876548 512.714496 773.876548zM606.976899-212l-188.49929 0c-189.443445 0-339.079269 0-339.079269 111.818585l0 18.551372c0 184.314386 152.111042 334.256423 339.079269 334.256423l188.49929 0c186.968227 0 339.079269-149.942037 339.079269-334.256423l0-18.551372C946.030651-212 788.892621-212 606.976899-212zM418.47761 214.47741c-165.941638 0-300.955817-132.845174-300.955817-296.132971l0-18.551372c0-70.122654 114.344838-73.669615 300.955817-73.669615l188.49929 0c154.764883 0 300.9303 0 300.955817 73.669615l0 18.551372c0 163.287797-135.014179 296.132971-300.955817 296.132971L418.47761 214.47741z"  horiz-adv-x="1024" />

    
    <glyph glyph-name="dingdanhaodaishenhe" unicode="&#59001;" d="M711.705 569.44h28.531v-370.608h-28.531v370.608zM640.383 569.44h28.531v-256.762h-28.531v256.762zM569.059 569.44h42.795v-256.762h-42.795v256.762zM511.999 569.44h28.532v-256.762h-28.532v256.762zM426.409 569.44h57.061v-256.762h-57.061v256.762zM681.485 263.94c0-8.735-3.407-13.405-9.606-20.612l-25.162-29.22h34.767v-14.797h-54.75v14.797l33.635 39.083c3.296 3.924 4.687 6.704 4.687 10.871 0 6.701-3.924 11.254-10.885 11.254-5.435 0-10.991-2.78-10.991-11.499h-16.444c0 16.429 12.015 26.292 27.435 26.292 15.937 0.001 27.313-9.985 27.313-26.167v0zM611.953 264.321c0-9.74-4.43-15.297-10.368-18.473 6.442-3.407 11.634-9.604 11.634-20.475 0-17.955-13.147-26.812-28.582-26.812-14.673 0-28.459 7.713-28.703 26.554h16.429c0.257-8.093 5.83-11.756 12.275-11.756 7.069 0 12.135 4.427 12.135 12.518 0 7.465-4.55 12.382-12.639 12.382h-2.398v14.291h2.398c7.956 0 11.375 4.932 11.375 11.267 0 7.574-5.056 11.497-10.993 11.497-6.197 0-10.763-4.043-11.143-10.87h-16.427c0.381 16.061 12.397 25.667 27.571 25.667 15.938 0.001 27.436-10.612 27.436-25.788v0zM498.526 199.311l29.223 75.255h-23.773v-14.167h-15.693v28.964h57.297v-14.797l-29.209-75.255h-17.845zM451.882 253.311c-2.153 0-4.551-0.244-6.7-1.13l18.716 37.177h-17.955l-18.964-38.946c-4.059-8.229-7.602-15.817-7.602-24.032 0-17.833 12.153-27.819 28.090-27.819 15.926 0 28.065 10.368 28.065 28.063-0.001 16.703-11.498 26.687-23.649 26.687v0zM447.468 213.358c-6.7 0-11.636 4.806-11.636 13.145 0 8.348 4.932 13.161 11.636 13.161 6.948 0 11.634-5.191 11.634-13.161 0-8.339-4.932-13.145-11.634-13.145v0zM379.053 290.109c-14.66 0-27.436-9.606-27.436-26.811v-37.925c0-17.206 12.777-26.812 27.436-26.812 14.685 0 27.327 9.606 27.327 26.812v37.925c0 17.206-12.642 26.811-27.327 26.811v0zM389.938 225.495c0-7.587-4.427-12.135-10.885-12.135-6.443 0-10.994 4.549-10.994 12.135v37.559c0 7.587 4.551 12.261 10.994 12.261 6.458 0 10.885-4.673 10.885-12.261v-37.559zM369.355 569.44h28.529v-256.762h-28.529v256.762zM283.764 569.44h42.797v-370.608h-42.797v370.608zM283.764 569.44zM512-66c-60.738 0-119.674 11.902-175.169 35.375-53.589 22.666-101.711 55.109-143.031 96.428-41.318 41.319-73.763 89.44-96.428 143.030-23.472 55.497-35.374 114.43-35.374 175.169 0 60.738 11.902 119.674 35.374 175.169 22.666 53.589 55.109 101.711 96.428 143.030 41.319 41.319 89.441 73.763 143.031 96.428 55.497 23.472 114.43 35.374 175.169 35.374s119.673-11.902 175.169-35.374c53.589-22.666 101.71-55.109 143.030-96.428 41.319-41.318 73.763-89.441 96.428-143.030 23.473-55.497 35.375-114.431 35.375-175.169 0-60.738-11.902-119.673-35.375-175.169-22.666-53.589-55.109-101.71-96.428-143.030s-89.44-73.762-143.030-96.428c-55.497-23.473-114.43-35.375-175.169-35.375zM512 781.216c-219.024 0-397.215-178.19-397.215-397.215 0-219.024 178.19-397.215 397.215-397.215 219.024 0 397.215 178.191 397.215 397.215 0 219.024-178.191 397.215-397.215 397.215z"  horiz-adv-x="1024" />

    
    <glyph glyph-name="dashuju" unicode="&#58956;" d="M858.3493238281251 119.34093925781258L531.6386328125 119.34093925781258l0-142.92389794921874 245.01817792968745 0 0-40.859297753906255L245.78094482421875-64.44225644531241 245.78094482421875-23.562272753906313l245.01817792968745 0L490.79912275390626 119.36252431640617 164.10911855468748 119.36252431640617c-56.3719798828125 0-102.0906826171875 45.69621767578125-102.0906826171875 102.0906826171875L62.018435937500044 731.9093173828124c0 56.3719798828125 45.73489130859375 102.0906826171875 102.0906826171875 102.0906826171875l694.2393061523437 0c56.37287900390625 0 102.09158173828125-45.73489130859375 102.09158173828125-102.0906826171875l0-510.4570104492188C960.4409055664063 165.0587419921875 914.7006168945313 119.34093925781258 858.3493238281251 119.34093925781258L858.3493238281251 119.34093925781258 858.3493238281251 119.34093925781258zM919.5816078125001 711.4904610351562c0 56.37647636718749-25.27736220703125 81.65383857421875-81.65114033203125 81.65383857421875L184.5072880859375 793.1443004882813c-56.3557904296875 0-81.65114033203125-25.299846386718748-81.65114033203125-81.65383857421875l0-469.61929775390627c0-56.39446494140625 25.27736220703125-81.69341220703124 81.65114033203125-81.69341220703124l653.4024934570313 0c56.37647636718749 0 81.65383857421875 25.27736220703125 81.65383857421875 81.69341220703124L919.5636201171875 711.4904610351562 919.5816078125001 711.4904610351562 919.5816078125001 711.4904610351562zM735.8190989257813 486.8902403320313c-13.2300298828125 0-25.765730859375 2.7170578125-37.34627958984375 7.2877587890625l-66.35970791015626-94.760651953125c13.58169169921875-14.596203515625 22.03416123046875-33.973565625 22.03416123046875-55.455501269531254 0-45.12240703125-36.549419238281246-81.69251220703126-81.69251220703126-81.69251220703126-45.08463251953125 0-81.65563769531249 36.549419238281246-81.65563769531249 81.69251220703126 0 13.3541455078125 3.5130181640625002 25.79181328125 9.211554492187501 36.9397546875L405.4730732421875 489.52545351562503c-5.3720578125000005-1.5730338867187499-10.90330751953125-2.6352131835937502-16.764633984375-2.6352131835937502-4.30448115234375 0-8.511829101562501 0.44969501953125-12.557286035156249 1.3077131835937499l-78.99793945312499-111.05310585937501c6.2075909179687505-9.575807519531251 9.88339921875-20.92881005859375 9.88339921875-33.182102636718746 0-33.833261425781245-27.4017216796875-61.27365673828125-61.23498310546875-61.27365673828125-33.83236142578126 0-61.29434267578125 27.4403953125-61.29434267578125 61.27365673828125s27.4403953125 61.23498310546875 61.27365673828125 61.23498310546875c6.6572859375 0 12.88736279296875-1.3059149414062499 18.86830751953125-3.2692833984375l76.70989072265625 107.7892189453125c-8.55500009765625 10.534558007812501-13.88478603515625 23.769084375-13.88478603515625 38.386873828125005 0 33.85394736328124 27.40262080078125 61.29614091796875 61.23498310546875 61.29614091796875 33.833261425781245 0 61.27365673828125-27.441294433593747 61.27365673828125-61.274555859375 0-13.006981054687499-4.12100595703125-25.011142382812498-11.00224072265625-34.91702666015625l88.20499658203126-101.33609414062501c12.9638109375 8.636843847656252 28.54574560546875 13.7435818359375 45.28969365234375 13.7435818359375 8.81672255859375 0 17.1504720703125-1.7349240234375 25.092987011718748-4.33146357421875l66.62502861328126 95.06914277343749c-18.786462890625 18.49955712890625-30.465044824218744 44.16635478515625-30.465044824218744 72.62665927734375 0 56.3773763671875 45.69621767578125 102.06999667968749 102.0906826171875 102.06999667968749 56.37647636718749 0 102.0906826171875-45.69172119140625 102.0906826171875-102.06999667968749C837.9304674804688 532.5864580078126 792.1955752929687 486.8902403320313 735.8190989257813 486.8902403320313L735.8190989257813 486.8902403320313 735.8190989257813 486.8902403320313zM245.78094482421875 364.38070224609373c-11.26845966796875 0-20.414358984375-9.1467984375-20.414358984375-20.41885634765625 0-11.28914560546875 9.14589931640625-20.435944042968753 20.414358984375-20.435944042968753 11.27115791015625 0 20.41885634765625 9.1467984375 20.41885634765625 20.435944042968753C266.199801171875 355.2339038085937 257.05300273437496 364.38070224609373 245.78094482421875 364.38070224609373L245.78094482421875 364.38070224609373 245.78094482421875 364.38070224609373zM388.70933925781253 568.54497890625c-11.27205791015625 0-20.41885634765625-9.109023925781251-20.41885634765625-20.41975546875 0-11.27115791015625 9.1467984375-20.41885634765625 20.41885634765625-20.41885634765625 11.27295703125 0 20.41885634765625 9.1467984375 20.41885634765625 20.41885634765625C409.12819560546876 559.4143690429687 399.98229628906256 568.54497890625 388.70933925781253 568.54497890625L388.70933925781253 568.54497890625 388.70933925781253 568.54497890625zM572.4547595703125 384.7788717773438c-22.544114941406253 0-40.83861181640625-18.29449599609375-40.83861181640625-40.81702587890625 0-22.561203515625 18.29449599609375-40.854800390624995 40.83861181640625-40.854800390624995 22.581889453125 0 40.854800390624995 18.29449599609375 40.854800390624995 40.854800390624995C613.3095599609376 366.48437578125004 595.0366490234376 384.7788717773438 572.4547595703125 384.7788717773438L572.4547595703125 384.7788717773438 572.4547595703125 384.7788717773438zM735.8190989257813 650.2159060546875c-33.81167548828125 0-61.252970800781256-27.4403953125-61.252970800781256-61.23498310546875 0-33.83236142578126 27.441294433593747-61.27365673828125 61.27365673828125-61.27365673828125 33.833261425781245 0 61.23498310546875 27.441294433593747 61.23498310546875 61.27365673828125C797.0756670898438 622.7755098632813 769.6514603515625 650.2159060546875 735.8190989257813 650.2159060546875L735.8190989257813 650.2159060546875 735.8190989257813 650.2159060546875zM735.8190989257813 650.2159060546875"  horiz-adv-x="1024" />

    
    <glyph glyph-name="shouji" unicode="&#58902;" d="M512.671 864c-264.987 0-479.789-214.811-479.789-479.78 0-264.978 214.802-479.798 479.789-479.798 264.978 0 479.789 214.811 479.789 479.798 0 264.968-214.811 479.78-479.789 479.78zM720.325 153.989c0-36.521-32.769-66.431-72.208-66.431h-270.908c-39.419 0-72.189 29.901-72.189 66.431v460.453c0 36.339 32.769 66.412 72.189 66.412h270.908c39.429 0 72.208-30.073 72.208-66.412v-460.453zM512.863 160.332c-13.598 0-25.755-10.402-25.755-23.462s12.148-23.423 25.755-23.423c14.336 0 25.381 10.354 25.381 23.423-0.009 13.060-11.054 23.462-25.381 23.462zM358.314 609.213h308.725v-425.246h-308.725v425.246zM473.809 632.79h77.736c3.589 0 6.468 2.687 6.468 5.978 0 3.31-2.879 5.978-6.468 5.978h-77.736c-3.57 0-6.477-2.678-6.477-5.978 0-3.292 2.907-5.978 6.477-5.978z"  horiz-adv-x="1025" />

    
    <glyph glyph-name="kongdiaoguiji" unicode="&#58972;" d="M284.839839 630.7887089999999l456.166367 0 0 31.230282L284.839839 662.018991 284.839839 630.7887089999999zM284.839839 563.673126l456.166367 0 0 31.230282L284.839839 594.903407 284.839839 563.673126zM284.839839 697.904293l456.166367 0 0 31.231305L284.839839 729.135598 284.839839 697.904293zM806.838563 830.736601L217.15939 830.736601c-24.588001 0-44.503587-20.033265-44.503587-44.74304l0-715.897853c0-24.708751 19.915585-44.745087 44.503587-44.745087l22.730701 0 0-64.318888c0-12.355399 9.962909-23.769356 22.251793-23.769356l500.886895 0c12.287861 0 22.252817 11.412934 22.252817 23.769356l0 64.318888 21.555945 0c24.575722 0 44.503587 20.035312 44.503587 44.745087L851.341127 785.99356C851.34215 810.703335 831.414285 830.736601 806.838563 830.736601zM741.124909 2.9791000000000167c0-12.353352-9.963932-22.369473-22.251793-22.369473L307.570539-19.390372999999954c-12.288884 0-22.252817 10.016121-22.252817 22.369473l0 21.923312 455.807187 0L741.124909 2.9791000000000167zM807.760562 126.02348400000005c0-24.708751-19.928888-44.742017-44.502563-44.742017L262.589069 81.28146700000002c-24.578792 0-44.50461 20.032242-44.50461 44.742017L218.084459 450.415642 807.760562 450.415642 807.760562 126.02348400000005zM807.760562 495.159706L218.084459 495.159706 218.084459 741.063255c0 24.709775 19.925818 44.744064 44.50461 44.744064l500.66893 0c24.574698 0 44.502563-20.034289 44.502563-44.744064L807.760562 495.159706zM284.839839 630.7887089999999l456.166367 0 0 31.230282L284.839839 662.018991 284.839839 630.7887089999999zM284.839839 563.673126l456.166367 0 0 31.230282L284.839839 594.903407 284.839839 563.673126zM284.839839 697.904293l456.166367 0 0 31.231305L284.839839 729.135598 284.839839 697.904293zM806.838563 830.736601L217.15939 830.736601c-24.588001 0-44.503587-20.033265-44.503587-44.74304l0-715.897853c0-24.708751 19.915585-44.745087 44.503587-44.745087l22.730701 0 0-64.318888c0-12.355399 9.962909-23.769356 22.251793-23.769356l500.886895 0c12.287861 0 22.252817 11.412934 22.252817 23.769356l0 64.318888 21.555945 0c24.575722 0 44.503587 20.035312 44.503587 44.745087L851.341127 785.99356C851.34215 810.703335 831.414285 830.736601 806.838563 830.736601zM741.124909 2.9791000000000167c0-12.353352-9.963932-22.369473-22.251793-22.369473L307.570539-19.390372999999954c-12.288884 0-22.252817 10.016121-22.252817 22.369473l0 21.923312 455.807187 0L741.124909 2.9791000000000167zM807.760562 126.02348400000005c0-24.708751-19.928888-44.742017-44.502563-44.742017L262.589069 81.28146700000002c-24.578792 0-44.50461 20.032242-44.50461 44.742017L218.084459 450.415642 807.760562 450.415642 807.760562 126.02348400000005zM807.760562 495.159706L218.084459 495.159706 218.084459 741.063255c0 24.709775 19.925818 44.744064 44.50461 44.744064l500.66893 0c24.574698 0 44.502563-20.034289 44.502563-44.744064L807.760562 495.159706z"  horiz-adv-x="1024" />

    
    <glyph glyph-name="shijian1" unicode="&#58897;" d="M541.047464 731.957333 541.047464 780.836267C541.047464 798.0736 527.223464 812 510.088531 812c-17.134933 0-30.958933-13.9264-30.958933-31.163733L479.129597 731.786667C236.373331 714.754133 43.861331 509.8176 43.861331 260.439467 43.861331-0.066133 253.883731-212 511.999997-212c258.082133 0 468.138667 211.933867 468.138667 472.439467C980.138664 511.114667 785.715197 716.768 541.047464 731.957333L541.047464 731.957333zM511.999997-149.604267c-224.0512 0-406.3232 183.978667-406.3232 410.043733 0 226.065067 182.272 410.043733 406.3232 410.043733 224.0512 0 406.3232-183.978667 406.3232-410.043733C918.323197 34.3744 736.051197-149.604267 511.999997-149.604267L511.999997-149.604267zM353.348264-22.696533c-100.864 57.787733-163.566933 166.263467-163.566933 283.136 0 8.6016-6.894933 15.633067-15.428267 15.633067-8.4992 0-15.428267-6.997333-15.428267-15.633067 0-128.1024 68.7104-246.9888 179.268267-310.272 2.389333-1.399467 5.0176-2.013867 7.611733-2.013867 5.393067 0 10.615467 2.798933 13.4144 7.918933C363.349331-36.520533 360.755197-26.997333 353.348264-22.696533L353.348264-22.696533zM437.589331-65.4656c-6.007467 1.604267-11.912533 3.310933-17.8176 5.2224-8.226133 2.594133-16.827733-1.911467-19.421867-10.103467-2.594133-8.226133 1.911467-17.032533 10.001067-19.626667 6.417067-2.116267 12.936533-3.925333 19.524267-5.597867 1.297067-0.4096 2.594133-0.512 3.8912-0.512 6.894933 0 13.1072 4.7104 14.916267 11.707733C450.901331-76.081067 445.883731-67.581867 437.589331-65.4656L437.589331-65.4656zM910.813864 569.1072c6.007467-6.109867 13.9264-9.1136 21.845333-9.1136 7.918933 0 15.837867 3.106133 21.947733 9.216 12.014933 12.219733 12.014933 31.9488-0.1024 44.066133l-80.213333 80.827733c-12.117333 12.219733-31.6416 12.117333-43.656533-0.1024-12.014933-12.219733-12.014933-31.9488 0.1024-44.066133L910.813864 569.1072 910.813864 569.1072zM541.047464 266.242133 541.047464 515.6544c0 17.237333-13.824 31.163733-30.958933 31.163733-17.134933 0-30.958933-13.9264-30.958933-31.163733l0-262.826667c0-8.6016 4.4032-16.827733 10.615467-22.6304l90.453333-85.333333c6.007467-5.700267 13.6192-8.4992 21.230933-8.4992 8.226133 0 15.940267 3.310933 22.050133 9.8304 11.707733 12.526933 10.717867 32.256-1.706667 44.066133L541.047464 266.242133 541.047464 266.242133zM541.047464 266.242133"  horiz-adv-x="1024" />

    
    <glyph glyph-name="mima5" unicode="&#58973;" d="M763.052 467.684l-63.158 1.579h-371.052v110.526c0 107.368 72.632 186.316 180 186.316s189.473-78.948 189.473-186.316v-20.526h63.158v20.526c0 137.369-112.105 249.474-249.474 249.474s-249.474-112.105-249.474-249.474v-110.526c-45.789 0-83.684-37.895-83.684-83.684v-192.632c3.158-138.947 113.684-251.052 251.052-251.052h165.79c137.369 0 249.474 112.105 249.474 249.474v192.632c0 45.789-37.895 83.684-82.105 83.684zM778.843 196.105c0-104.21-85.264-189.473-189.473-189.473h-153.158c-104.21 0-189.473 85.264-189.473 189.473v181.579c0 14.21 12.632 26.842 26.842 26.842h478.421c14.21 0 26.842-12.632 26.842-26.842v-181.579zM508.843 301.895c-30 0-55.263-25.264-55.263-55.263 0-17.368 9.473-48.947 18.948-74.211 7.895-20.526 17.368-36.316 36.316-36.316 22.105 0 30 15.789 36.316 36.316 9.473 25.263 18.948 56.843 18.948 74.211 0 30-25.264 55.263-55.263 55.263z"  horiz-adv-x="1024" />

    
    <glyph glyph-name="yey2" unicode="&#58980;" d="M692.305017 325.612331c4.303003 4.372587 8.500605 8.909927 12.58155 13.619182 32.313963-13.014408 143.113465-48.397267 253.915014 23.683399 0 0-163.335019-24.693402-208.117968 45.415352 0.194428 0.387833 0.396019 0.76748 0.590448 1.156336 0 0-0.277316-0.284479-0.805342-0.817622-0.171915 0.272199-0.348947 0.542352-0.515746 0.817622l-6.086625-7.395434c-19.635199-19.301602-53.807487-57.455573-111.797225-84.190471-52.462862-24.186865-122.703623-34.045397-180.415023-33.725102-142.66935 0.796132-203.471135 79.157851-237.352803 101.889575-30.978549 16.758686-33.672914 27.944446-73.284073 9.154497-52.711526-25.00551-77.172637-88.336908-77.172637-88.336908 77.172637 31.652907 132.323725 7.499811 146.615219-2.439562 0.839111-0.613984 1.673106-1.233084 2.518357-1.838881 0.001023 0 0.008186-0.00614 0.008186-0.00614l0.001023 0c11.332093-8.116865 23.194258-15.530718 35.517935-22.248723-5.67014-32.030507-43.715641-49.421596-43.715641-49.421596 53.851489 8.357342 68.873624 20.702508 79.455633 32.452109 11.996219-4.9088 24.342408-9.215896 36.991496-12.912078-3.810792-39.07904-44.678572-67.962881-44.678572-67.962881 54.650691 9.474792 74.792427 42.987047 81.4388 59.106166 14.387685-2.756787 29.093619-4.771677 44.062542-6.03239 11.356652-31.475875-6.082532-74.785264-6.082532-74.785264 27.882024 22.267143 40.907689 59.33334 44.99375 73.224722 13.285584 0.029676 26.245757 0.51984 38.884612 1.471514 6.459109-14.147208 24.996301-50.79692 52.653197-72.882937 0 0-18.418488 35.052331-10.157337 78.076216 10.126638 1.74576 20.019962 3.832282 29.65746 6.288217 9.101285-13.409404 38.175461-45.149293 112.465444-51.92665 0 0-60.956304 19.512403-59.33948 70.27146 9.116635 4.071735 17.958 8.553817 26.508747 13.461593 14.896268-13.270235 68.733431-50.658773 195.506742-42.017976C827.150168 236.7607 715.285404 253.611483 692.305017 325.612331z"  horiz-adv-x="1024" />

    
    <glyph glyph-name="duigou" unicode="&#58937;" d="M394.587 86.533c-12.233 0-24.434 4.534-33.733 13.634l-280.467 273.7c-18.634 18.2-18.634 47.666 0 65.866 18.634 18.201 48.833 18.201 67.466 0l246.734-240.767 481.067 469.367c18.633 18.201 48.833 18.201 67.466 0 18.633-18.166 18.633-47.633 0-65.834l-514.8-502.333c-9.334-9.1-21.533-13.634-33.733-13.634v0z"  horiz-adv-x="1024" />

    
    <glyph glyph-name="huidingbu" unicode="&#58935;" d="M825.568 256.672l-287.392 289.28C531.808 552.352 523.488 555.424 515.2 555.36 514.08 555.456 513.12 556 512 556c-4.672 0-9.024-1.088-13.024-2.88-4.032-1.536-7.872-3.872-11.136-7.136l-259.328-258.88c-12.512-12.48-12.544-32.736-0.032-45.248 6.24-6.272 14.432-9.408 22.656-9.408 8.192 0 16.352 3.136 22.624 9.344L480 447.712 480-116c0-17.696 14.336-32 32-32s32 14.304 32 32L544 449.28l236.192-237.728c6.24-6.272 14.496-9.44 22.688-9.44s16.32 3.104 22.56 9.312C838.016 223.872 838.048 244.16 825.568 256.672zM864 620 160 620C142.336 620 128 634.336 128 652s14.336 32 32 32l704 0c17.696 0 32-14.336 32-32S881.696 620 864 620z"  horiz-adv-x="1024" />

    
    <glyph glyph-name="screen" unicode="&#59010;" d="M896 709.6l-819.2 0c-42.3424 0-76.8-34.4576-76.8-76.8l0-512c0-42.3424 34.4576-76.8 76.8-76.8l384 0 0-102.4-179.2 0c-14.1312 0-25.6-11.4688-25.6-25.6s11.4688-25.6 25.6-25.6l409.6 0c14.1312 0 25.6 11.4688 25.6 25.6s-11.4688 25.6-25.6 25.6l-179.2 0 0 102.4 384 0c42.3424 0 76.8 34.4576 76.8 76.8l0 512c0 42.3424-34.4576 76.8-76.8 76.8zM921.6 120.8c0-14.1312-11.4688-25.6-25.6-25.6l-819.2 0c-14.1312 0-25.6 11.4688-25.6 25.6l0 512c0 14.1312 11.4688 25.6 25.6 25.6l819.2 0c14.1312 0 25.6-11.4688 25.6-25.6l0-512z"  horiz-adv-x="1024" />

    
    <glyph glyph-name="xiangzuo" unicode="&#59011;" d="M755.22 758.658l-374.445-374.423 374.445-374.423c17.232-17.232 17.232-45.187 0-62.418-17.232-17.232-45.164-17.232-62.396 0l-405.643 405.643c-17.232 17.232-17.232 45.164 0 62.396 0 0.022 0 0.022 0 0.022l405.643 405.622c17.232 17.232 45.164 17.232 62.396 0s17.232-45.187 0-62.418z"  horiz-adv-x="1024" />

    
    <glyph glyph-name="hekr" unicode="&#58930;" d="M310.289 634.303c0-104.112 84.397-188.512 188.506-188.512h29.003v377.020h-29.003c-104.109 0-188.506-84.399-188.506-188.509v0zM489.122 494.139c-77.406 0-140.158 62.753-140.158 140.161 0 77.406 62.753 140.158 140.158 140.158v-280.319zM498.795 474.792zM192.395 333.864c90.161-52.056 205.455-21.166 257.511 68.997l14.503 25.118-326.51 188.509-14.503-25.118c-52.056-90.162-21.163-205.449 68.999-257.506v0zM403.195 418.658c-38.703-67.034-124.424-90.006-191.464-51.3-67.037 38.703-90.006 124.424-51.303 191.458l242.767-140.158zM424.787 417.362zM394.833 82.513c90.162 52.056 121.057 167.347 69.002 257.508l-14.503 25.117-326.505-188.509 14.503-25.118c52.053-90.161 167.341-121.053 257.503-68.999v0zM426.801 307.469c38.703-67.034 15.734-152.755-51.306-191.461-67.037-38.703-152.755-15.734-191.458 51.3l242.764 140.161zM438.719 325.521zM713.711 133.697c0 104.112-84.397 188.512-188.506 188.512h-29.003v-377.020h29.003c104.109 0 188.506 84.399 188.506 188.509v0zM534.878 273.861c77.406 0 140.158-62.753 140.158-140.161 0-77.406-62.753-140.158-140.158-140.158v280.319zM525.205 293.208zM831.605 434.136c-90.161 52.056-205.455 21.166-257.511-68.997l-14.503-25.118 326.51-188.509 14.503 25.118c52.056 90.162 21.163 205.449-68.999 257.506v0zM620.805 349.342c38.703 67.034 124.424 90.006 191.464 51.3 67.034-38.703 90.006-124.424 51.303-191.458l-242.767 140.158zM599.213 350.638zM629.167 685.487c-90.162-52.056-121.057-167.347-69.002-257.508l14.503-25.117 326.51 188.509-14.503 25.118c-52.058 90.161-167.347 121.053-257.508 68.999v0zM597.199 460.531c-38.703 67.034-15.734 152.755 51.306 191.461 67.037 38.703 152.755 15.734 191.458-51.3l-242.764-140.161zM585.281 442.479z"  horiz-adv-x="1024" />

    
    <glyph glyph-name="xieyi" unicode="&#58944;" d="M782.411-66h-539.697c-49.717 0-89.948 40.318-89.948 89.948v719.542c0 49.622 40.231 89.948 89.948 89.948h179.896v-269.838c0-99.339 80.651-179.882 179.903-179.882h269.844v-359.771c0-49.63-40.232-89.948-89.948-89.948v0zM512.572 563.602v269.836l359.785-359.778h-269.843c-49.717 0-89.941 40.312-89.941 89.941v0zM512.572 563.602z"  horiz-adv-x="1024" />

    
    <glyph glyph-name="yanzhengma" unicode="&#58964;" d="M886.531 742.594l-345.469 111.75c-18.844 6-39.281 6-58.125 0l-345.469-111.75c-29.344-9.469-49.031-36.563-49.031-67.406v-245.344c0-141.75 68.156-276.469 182.437-360.563l199.125-146.438c12.281-9.094 26.813-13.781 42-13.781 15.188 0 29.719 4.781 42 13.781l199.219 146.438c114.281 84 182.438 218.813 182.438 360.563v245.344c-0.094 30.844-19.781 57.938-49.125 67.406zM875.188 428.25c0-122.344-58.875-238.687-157.406-311.156l-192.188-141.281c-7.969-5.812-19.219-5.906-27.281 0l-192.094 141.281c-98.625 72.469-157.406 188.813-157.406 311.156v236.625c0 9.938 6.375 18.75 15.844 21.75l333.281 107.813c4.594 1.5 9.281 2.25 14.063 2.25s9.469-0.75 14.063-2.25l333.188-107.813c9.469-3 15.844-11.813 15.844-21.75l0.094-236.625zM723.781 592.031h-423.563c-13.031 0-23.531-10.5-23.531-23.531s10.5-34.781 23.531-34.781h182.625v-339.844c0-13.031 16.125-23.531 29.156-23.531s30.094 10.5 30.094 23.531v339.844h181.688c13.031 0 23.531 21.75 23.531 34.781s-10.5 23.531-23.531 23.531z"  horiz-adv-x="1024" />

    
    <glyph glyph-name="shijian" unicode="&#59029;" d="M501.988 849.033c252.996 0 457.979-205.027 457.979-457.933 0-252.95-205.027-457.979-457.979-457.979-252.906 0-457.933 205.027-457.933 457.979 0.046 252.906 205.073 457.933 457.933 457.933v0zM398.223 361.245h91.022v319.988h-91.022v-319.988zM489.245 361.245h227.555v91.022h-227.555v-91.022z"  horiz-adv-x="1024" />

    
    <glyph glyph-name="xiala-copy" unicode="&#58903;" d="M512 66.954l-317.049 317.049 51.555 51.483 265.493-265.493 265.493 265.493 51.555-51.483z"  horiz-adv-x="1024" />

    
    <glyph glyph-name="iconfontyanjing" unicode="&#58993;" d="M511.674589 384.346901m-117.782543 0a115.1 115.1 0 1 0 235.565087 0 115.1 115.1 0 1 0-235.565087 0ZM502.828107 671.578718c-278.256398 0-428.822602-286.99748-428.822602-286.99748s195.446367-287.466154 440.790168-287.466154 434.546977 289.966091 434.546977 289.966091S781.084505 671.578718 502.828107 671.578718zM511.674589 174.470893c-115.910916 0-209.876008 93.964068-209.876008 209.876008s93.964068 209.876008 209.876008 209.876008 209.876008-93.964068 209.876008-209.876008S627.585505 174.470893 511.674589 174.470893z"  horiz-adv-x="1024" />

    
    <glyph glyph-name="tuichu" unicode="&#58948;" d="M529.069-65.354c-58.151 0-114.625 10.945-167.746 32.642-51.343 20.857-97.388 50.755-136.96 88.853-39.572 38.099-70.627 82.493-92.358 131.892-22.469 51.142-33.871 105.482-33.871 161.5 0 67.028 17.070 133.571 49.331 192.527 31.188 56.954 76.495 106.966 131.058 144.613 15.158 10.461 36.218 7.071 47.050-7.491 10.832-14.561 7.377-34.806-7.78-45.202-46.112-31.9-84.376-74.066-110.668-122.141-27.6-50.4-41.585-104.998-41.585-162.307 0-93.503 37.828-181.42 106.51-247.512 68.648-66.124 159.933-102.544 257.018-102.544 97.053 0 188.371 36.42 257.052 102.544 68.681 66.091 106.476 154.009 106.476 247.512 0 57.245-13.951 111.939-41.585 162.307-26.292 48.043-64.59 90.242-110.702 122.078-15.125 10.397-18.646 30.64-7.78 45.203 10.866 14.561 31.893 17.984 47.018 7.491 54.597-37.647 99.97-87.659 131.125-144.613 32.295-58.957 49.365-125.5 49.365-192.527 0-56.018-11.402-110.357-33.905-161.531-21.697-49.399-52.785-93.793-92.358-131.892-39.572-38.099-85.617-67.964-136.96-88.918-53.154-21.567-109.596-32.481-167.746-32.481v0 0zM539.197 384.855c-18.612 0-33.703 14.464-33.703 32.416v384.279c0 17.887 15.091 32.449 33.703 32.449s33.737-14.562 33.737-32.449v-384.279c0-17.951-15.125-32.416-33.737-32.416v0 0z"  horiz-adv-x="1024" />

    
    <glyph glyph-name="p-check" unicode="&#59035;" d="M158.817 66.387c-28.482 0-51.653 23.154-51.653 51.616v543.117c0 28.464 23.17 51.621 51.653 51.621h484.885c28.481 0 51.653-23.157 51.653-51.621v-129.244l-0.001-6.803c-0.053-12.378-10.142-22.432-22.536-22.432-12.392 0-22.478 10.054-22.531 22.433 0.003 0.085 0.004 6.801 0.004 6.801h-0.040v90.446c0 16.097-1.573 28.393-9.258 36.082-7.684 7.689-19.973 9.264-36.058 9.264h-407.321c-16.099 0-28.397-1.575-36.083-9.263s-9.262-19.985-9.262-36.083v-465.519c0-16.096 1.575-28.393 9.262-36.082 7.69-7.69 19.987-9.265 36.084-9.265h407.32c16.086 0 28.373 1.576 36.058 9.267 7.684 7.69 9.258 19.985 9.258 36.080v37.822l0.005 0.95c0.050 12.385 10.164 22.463 22.55 22.463 12.382 0 22.496-10.078 22.546-22.463l0.005-1.117v-76.456c0-28.461-23.17-51.616-51.653-51.616h-484.885zM670.273 279.547c-5.873 0-11.361 2.197-15.561 6.197l-0.447 0.501-135.547 135.578c-4.26 4.247-6.601 9.892-6.6 15.901 0.001 6.007 2.342 11.649 6.591 15.886 4.249 4.251 9.891 6.586 15.893 6.586 6.005 0 11.658-2.34 15.914-6.585l119.685-119.681 217.249 217.249c4.257 4.256 9.922 6.6 15.946 6.6s11.687-2.344 15.942-6.6c8.789-8.79 8.789-23.095-0.001-31.889l-233.072-233.043c-0.168-0.177-0.317-0.352-0.446-0.518-4.204-3.989-9.692-6.181-15.518-6.181h-0.028zM246.079 299.116c-12.416 0-22.518 10.117-22.518 22.55s10.102 22.55 22.518 22.55h174.596c12.416 0 22.518-10.117 22.518-22.55s-10.102-22.55-22.518-22.55h-174.596zM246.079 434.909c-12.416 0-22.518 10.117-22.518 22.55 0 12.437 10.102 22.553 22.518 22.553h174.596c12.416 0 22.518-10.118 22.518-22.553 0-12.434-10.102-22.55-22.518-22.55h-174.596z"  horiz-adv-x="1024" />

    
    <glyph glyph-name="yanzhengshouji" unicode="&#59004;" d="M998.54 566.766c-12.961 12.961-34.007 12.961-46.989 0l-242.778-242.798-131.387 131.387c-12.961 12.939-33.945 12.939-46.863 0-12.981-12.939-12.981-31.255 0-44.195l154.66-154.702c0.063-0.064 0.084-0.169 0.147-0.231 6.491-6.491 14.997-9.726 23.525-9.726 8.507 0 17.013 3.214 23.484 9.705 0.084 0.084 0.126 0.189 0.189 0.274l266.011 265.967c12.98 12.979 12.98 31.338-0.001 44.319zM711.755 191.235c-18.316 0-8.97-14.809-9.031-33.105v-51.021c0-36.697-7.604-44.301-44.278-44.301h-513.494c-36.717 0-44.32 7.604-44.32 44.301v555.756c0 36.697 7.603 44.32 44.32 44.32h516.182c36.675 0 44.278-7.626 44.278-44.32v-128.237h0.043v-0.169c0-18.338 0.063-31.865 18.4-31.865 18.358 0 21.131 13.527 21.131 31.865 0 0.063-0.020 0.126-0.020 0.169h0.020v149.053c0 36.655-29.765 66.418-66.46 66.418h-553.698c-36.697 0-66.439-29.765-66.439-66.418v-599.362c0-36.676 29.744-66.419 66.439-66.419h553.698c36.697 0 66.46 29.743 66.46 66.419v73.811h-0.020c-0.062 18.297-14.913 33.106-33.21 33.106zM487.084 492.995h-299.786v-43.019h299.786v43.019zM487.084 363.939h-299.786v-43.020h299.786v43.020zM187.299 148.847h299.786v43.018h-299.786v-43.018z"  horiz-adv-x="1024" />

    
    <glyph glyph-name="logout" unicode="&#58955;" d="M184.553 128v512c0 38.54 31.279 69.818 69.818 69.818h302.545l0 46.545h-325.818c-51.433 0-93.091-41.658-93.091-93.091v-558.545c0-51.433 41.658-93.091 93.091-93.091h325.818v46.545h-302.545c-38.586 0-69.818 31.279-69.818 69.818zM924.113 400.477l-164.585 164.585c-9.076 9.076-23.831 9.076-32.908 0-9.076-9.076-9.076-23.831 0-32.908l124.835-124.835h-457.449c-12.847 0-23.273-10.426-23.273-23.273s10.426-23.273 23.273-23.273h457.449l-124.835-124.835c-9.076-9.076-9.076-23.831 0-32.908 9.076-9.076 23.831-9.076 32.908 0l164.585 164.585c9.076 9.030 9.076 23.738 0 32.861z"  horiz-adv-x="1024" />

    
    <glyph glyph-name="icon" unicode="&#58884;" d="M979.747 222.956h-194.896c-43.054 0-77.958 34.532-77.958 77.134s34.906 77.131 77.958 77.131h194.896c21.525 0 38.978-17.267 38.978-38.563v-77.136c0-21.301-17.453-38.566-38.978-38.566zM784.851 338.656c-21.527 0-38.978-17.269-38.978-38.567 0-21.3 17.45-38.567 38.978-38.567 21.531 0 38.98 17.267 38.98 38.567 0 21.298-17.45 38.567-38.98 38.567zM667.916 338.656v-77.136c0-42.598 34.903-77.131 77.958-77.131h194.894v-154.269c0-42.601-34.901-77.138-77.958-77.138h-779.577c-43.056 0-77.958 34.538-77.958 77.138v655.633c0 63.897 52.355 115.7 116.937 115.7h779.579c21.527 0 38.978-17.269 38.978-38.567 0-21.3-17.45-38.565-38.978-38.565h-779.579c-21.527 0-38.978-17.269-38.978-38.567 0-21.3 17.45-38.567 38.978-38.567h740.601c43.058 0 77.958-34.532 77.958-77.134v-154.265h-194.894c-43.056-0.002-77.959-34.538-77.959-77.134z"  horiz-adv-x="1024" />

    
    <glyph glyph-name="filter" unicode="&#58900;" d="M510.72 792.439c123.983-0.001 247.965 0.015 371.947-0.014 26.157-0.005 45.222-26.177 35.723-49.644-2.303-5.69-6.745-10.853-11.173-15.293-93.182-93.406-186.482-186.692-279.875-279.887-3.721-3.713-5.26-7.295-5.254-12.611 0.16-140.865 0.148-281.729 0.115-422.593-0.006-28.132-24.235-46.325-49.788-37.115-4.908 1.769-9.641 5.147-13.379 8.862-49.535 49.247-98.847 98.716-148.3 148.044-8.317 8.297-12.080 18.052-12.066 29.76 0.109 91.968 0.107 183.935-0.086 275.903-0.005 2.803-1.825 6.247-3.884 8.31-94.010 94.223-188.007 188.46-282.385 282.316-16.602 16.509-13.824 36.337-3.537 50.39 7.362 10.058 17.865 13.606 29.994 13.598 67.714-0.052 135.429-0.027 203.143-0.027 56.267-0.001 112.535-0.001 168.802-0.002z"  horiz-adv-x="1024" />

    
    <glyph glyph-name="sdkgongju" unicode="&#59013;" d="M939.02 425.553c-5.834 0-11.36-1.184-16.523-3.318l0 0.001-0.007-0.004c-0.002-0.001-0.005-0.002-0.007-0.004l-399.872-165.437-399.872 165.394c-0.004 0.001-0.006 0.002-0.222 0.004l-0.007 0.004 0-0.001c-5.038 2.113-10.613 3.318-16.453 3.318-23.83 0-43.083-19.27-43.083-43.083 0-17.991 11.004-33.338 26.651-39.787l416.361-172.278c0.004-0.002 0.006-0.002 0.222-0.005l0.007-0.002c5.038-2.115 10.613-3.318 16.453-3.318 5.886 0 11.401 1.183 16.453 3.318l0.007 0.002c0.005 0.002 0.007 0.002 0.237 0.005l416.295 172.278c15.613 6.516 26.609 21.915 26.609 39.845 0 23.83-19.276 43.083-43.083 43.083zM89.212 529.427l0-0.001 416.361-172.278c0.004 0 0.006-0.002 0.222-0.002l0.007-0.005 0 0.002c5.038-2.115 10.613-3.318 16.453-3.318 5.886 0 11.401 1.183 16.453 3.318l0-0.002 0.007 0.005c0.005 0 0.007 0.002 0.237 0.002l416.295 172.293c15.613 6.479 26.609 21.846 26.651 39.782 0 17.991-11.004 33.338-26.651 39.782l0 0.001-416.295 172.278c-0.005 0.001-0.007 0.002-0.237 0.004l-0.007 0.004 0-0.001c-5.033 2.113-10.601 3.318-16.453 3.318-5.834 0-11.36-1.184-16.453-3.318l0 0.001-0.007-0.004c-0.004-0.001-0.006-0.002-0.222-0.004l-416.361-172.285c-15.633-6.479-26.629-21.846-26.629-39.782s11.004-33.347 26.629-39.787zM939.02 238.723c-5.834 0-11.36-1.183-16.523-3.318l-0.007-0.002c-0.002 0-0.005-0.002-0.007-0.002l-399.872-165.437-399.872 165.394c-0.004 0.002-0.006 0.002-0.222 0.005l-0.007 0.002c-5.038 2.112-10.613 3.318-16.453 3.318-23.83 0-43.083-19.276-43.158-43.083 0-17.991 11.004-33.338 26.629-39.782l416.361-172.278c0.004-0.002 0.006-0.002 0.222-0.005l0.007-0.002c5.038-2.115 10.613-3.318 16.453-3.318 5.886 0 11.321 1.183 16.453 3.318l0.007 0.002c0.005 0.002 0.007 0.002 0.237 0.005l416.295 172.278c15.643 6.479 26.651 21.846 26.651 39.782 0 23.854-19.276 43.073-43.083 43.073z"  horiz-adv-x="1024" />

    
    <glyph glyph-name="duihao" unicode="&#58887;" d="M451.411-62.176c-128.419 162.759-279.502 286.756-385.25 325.521l249.239 155.051 120.822-240.285c0 0 196.422 488.28 506.189 651.037-7.481-116.174-37.746-216.935 15.074-341.046-135.901-30.945-415.402-379.811-506.075-550.279v0 0z"  horiz-adv-x="1024" />

    
    <glyph glyph-name="warning" unicode="&#58928;" d="M482 264h60v390h-60v-390zM512 834c-248.52 0-450-201.45-450-450 0-248.52 201.48-450 450-450s450 201.51 450 450c0 248.55-201.48 450-450 450zM512-6c-215.4 0-390 174.6-390 390s174.6 390 390 390 390-174.6 390-390c0-215.4-174.6-390-390-390zM482 144h60v60h-60v-60z"  horiz-adv-x="1024" />

    
    <glyph glyph-name="pptp" unicode="&#59075;" d="M230.75 428.381h-68.063v257.962h600.075v147.656l199.237-179.55-199.237-179.55-0.675 147.15h-530.381l-0.956-193.669zM793.306 339.675h68.006v-258.019h-599.962v-147.656l-199.35 179.55 199.294 179.494 0.563-147.15h530.381l1.069 193.781zM554.975 468.375l-22.331-21.094 41.738-39.094h-195.525v-56.25h187.088l-33.3-31.219 22.331-21.094 90.169 84.375-90.169 84.375z"  horiz-adv-x="1024" />

    
    <glyph glyph-name="luyou" unicode="&#59078;" d="M877.625 159v277.65h-337.444v172.35h84.319v225h-225v-225h84.375v-172.406h-337.5v-277.594h-84.375v-225h225v225h-84.375v221.4h281.25v-221.4h-84.375v-225h225v225h-84.319v221.4h281.194v-221.4h-84.375v-225h225v225h-84.375zM560.206-1.706h-96.413v96.469h96.413v-96.469zM222.706-1.65h-96.412v96.413h96.413v-96.413zM560.206 673.294h-96.413v96.412h96.413v-96.413zM900.912-1.706h-96.412v96.469h96.413v-96.469z"  horiz-adv-x="1024" />

    
    <glyph glyph-name="erweima1" unicode="&#58942;" d="M363.096 284.732h-248.172c-27.386 0-49.634-22.249-49.634-49.634v-248.172c0-27.411 22.249-49.634 49.634-49.634h248.172c27.386 0 49.633 22.223 49.633 49.634v248.172c0.001 27.386-22.248 49.634-49.633 49.634v0 0zM363.096 11.744c0-13.695-11.1-24.817-24.817-24.817l-198.538 0c-13.717 0-24.817 11.122-24.817 24.817l0 198.537c0 13.716 11.1 24.817 24.817 24.817h198.538c13.717 0 24.817-11.101 24.817-24.817l-0-198.537zM524.408 284.732h-24.817c-6.835 0-12.457-5.55-12.457-12.41v-223.355c0-6.859 5.622-12.408 12.457-12.408h24.817c6.836 0 12.41 5.548 12.41 12.408l0 223.355c0 6.859-5.574 12.41-12.41 12.41v0 0zM499.591 483.269h24.817c6.836 0 12.41 5.55 12.41 12.409l0 322.623c0 6.859-5.574 12.409-12.41 12.409h-24.817c-6.835 0-12.457-5.549-12.457-12.409v-322.623c-0-6.858 5.622-12.409 12.457-12.409v0 0zM114.924 483.269h248.172c27.386 0 49.633 22.248 49.633 49.634l-0 248.196c0 27.387-22.248 49.61-49.633 49.61h-248.172c-27.386 0-49.634-22.224-49.634-49.61v-248.196c0-27.387 22.249-49.634 49.634-49.634v0 0zM114.924 756.257c0 13.693 11.1 24.841 24.817 24.841h198.538c13.717 0 24.817-11.149 24.817-24.841v-198.513c0-13.742-11.1-24.841-24.817-24.841l-198.538-0c-13.717 0-24.817 11.1-24.817 24.841l0 198.513zM673.359 210.257h-24.865c-6.834 0-12.408-5.526-12.408-12.386v-248.172c0-6.859 5.574-12.408 12.408-12.408h24.865c6.788 0 12.311 5.548 12.311 12.408v248.172c0.001 6.859-5.524 12.386-12.311 12.386v0 0zM946.252 408.841h-868.554c-6.835 0-12.409-5.599-12.409-12.432v-24.817c0-6.834 5.574-12.408 12.409-12.408h868.554c6.884 0 12.458 5.574 12.458 12.408l-0 24.817c0 6.835-5.574 12.432-12.458 12.432v0 0zM909.025 830.709h-248.121c-27.388 0-49.634-22.224-49.634-49.61v-248.196c0-27.387 22.247-49.634 49.634-49.634h248.122c27.483 0 49.685 22.248 49.685 49.634v248.196c-0.001 27.386-22.202 49.61-49.686 49.61v0 0zM909.025 557.744c0-13.742-11.099-24.841-24.767-24.841l-198.587-0c-13.668 0-24.767 11.1-24.767 24.841v198.513c0 13.693 11.099 24.841 24.767 24.841h198.587c13.668 0 24.767-11.149 24.767-24.841v-198.513zM797.348 210.257h-24.769c-6.884 0-12.408-5.526-12.408-12.386v-248.172c0-6.859 5.524-12.408 12.408-12.408h24.769c6.884 0 12.458 5.548 12.458 12.408v248.172c-0 6.859-5.574 12.386-12.458 12.386v0 0zM921.483 284.732h-24.769c-6.882 0-12.456-5.55-12.456-12.41v-322.623c0-6.859 5.574-12.408 12.456-12.408h24.769c6.884 0 12.41 5.548 12.41 12.408v322.623c0 6.859-5.526 12.41-12.41 12.41v0 0zM921.483 284.732z"  horiz-adv-x="1024" />

    
    <glyph glyph-name="L2TP" unicode="&#59130;" d="M286.999 158.999h562.5v-56.25h-562.5v56.25zM286.999-66l-225.001 196.875 225.001 196.875zM849.5 327.75h56.25v-225.001h-56.25v225.001zM174.5 665.25h562.5v-56.25h-562.5v56.25zM737.001 834l225.001-196.875-225.001-196.875zM118.25 665.25h56.25v-225.001h-56.25v225.001z"  horiz-adv-x="1024" />

    
    <glyph glyph-name="vpn" unicode="&#59041;" d="M680.75 46.5v-56.25h-337.5v56.25h337.5zM962 159h-900v562.5h900v-562.5zM118.25 215.25h787.5v450h-787.5v-450zM680.75 440.25v-84.375l112.5 112.5-112.5 112.5v-84.375h-337.5v84.375l-112.5-112.5 112.5-112.5v84.375h337.5z"  horiz-adv-x="1024" />

    
    <glyph glyph-name="chenggong" unicode="&#59166;" d="M512.001 832.372c-247.62 0-448.372-200.752-448.372-448.373 0-247.619 200.752-448.371 448.372-448.371 247.619 0 448.371 200.752 448.371 448.371 0 247.62-200.753 448.373-448.371 448.373v0zM452.07 183.66899999999998l-0.598-0.597-38.046 38.079 0.059 0.053-180.243 180.277 38.041 38.041 180.257-180.262 318.978 318.978 38.074-38.041-356.522-356.528zM452.07 183.66899999999998z"  horiz-adv-x="1024" />

    
    <glyph glyph-name="jine" unicode="&#58938;" d="M512-66c-248.115 0-450 201.885-450 450s201.885 450 450 450 450-201.885 450-450-201.885-450-450-450zM512 764.742c-209.971 0-380.742-170.771-380.742-380.742s170.771-380.742 380.742-380.742 380.742 170.771 380.742 380.742-170.771 380.742-380.742 380.742zM512.087 72.428c-19.073 0-34.629 15.469-34.629 34.629v346.201c0 19.072 15.469 34.629 34.629 34.629s34.629-15.469 34.629-34.629v-346.114c-0.089-19.161-15.557-34.717-34.629-34.717zM650.428 349.371h-276.857c-19.072 0-34.629 15.469-34.629 34.629s15.469 34.629 34.629 34.629h276.943c19.072 0 34.629-15.469 34.629-34.629s-15.557-34.629-34.717-34.629zM512 418.629c-8.877 0-17.754 3.427-24.434 10.107-13.536 13.536-13.536 35.42 0 48.955l138.428 138.428c13.536 13.535 35.42 13.535 48.955 0s13.536-35.42 0-48.955l-138.428-138.428c-6.768-6.768-15.645-10.107-24.521-10.107zM512.263 418.717c-8.877 0-17.754 3.427-24.521 10.107l-138.428 138.516c-13.536 13.536-13.536 35.42 0 48.955s35.42 13.536 48.955 0l138.428-138.428c13.536-13.536 13.536-35.42 0-48.955-6.679-6.768-15.557-10.195-24.434-10.195zM650.428 210.943h-276.857c-19.072 0-34.629 15.469-34.629 34.629s15.469 34.629 34.629 34.629h276.943c19.072 0 34.629-15.469 34.629-34.629s-15.557-34.629-34.717-34.629z"  horiz-adv-x="1024" />

    
    <glyph glyph-name="gengduo" unicode="&#58908;" d="M980.36 326.031l-388.812-171.894c-37.225-15.935-52.042-15.935-86.404 0l-388.812 171.894c-20.636 10.765-26.206 50.662-26.206 72.446 25.955-14.588 62.452-30.836 61.097-30.010l397.124-180.055 397.122 180.055c0.695 0.154 36.090 17.706 61.097 30.010-0.002-22.286-7.029-63.659-26.206-72.446zM980.36 506.085l-388.812-171.898c-37.225-15.93-52.042-15.93-86.404 0l-388.812 171.898c-30.541 15.939-29.588 66.13 0 84.878l388.812 201.901c34.361 16.875 55.861 17.811 86.404 0l388.812-201.901c29.587-15.939 28.631-71.755 0-84.878zM548.347 758.591l-397.124-210.068 397.124-164.583 397.122 164.583-397.122 210.068zM548.347 8.353l397.122 180.061c0.695 0.154 36.090 17.706 61.097 30.008 0-22.287-7.029-63.659-26.206-72.452l-388.812-171.888c-37.225-15.94-52.043-15.94-86.404 0l-388.812 171.888c-20.636 10.772-26.206 50.664-26.206 72.451 25.955-14.593 62.452-30.836 61.097-30.007l397.124-180.058z"  horiz-adv-x="1113" />

    
    <glyph glyph-name="zhifufangshidiannao" unicode="&#58978;" d="M911.375 715.875h-793.125c-33.75 0-56.25-22.5-56.25-56.25v-129.375h900v129.375c5.625 28.125-22.5 56.25-50.625 56.25zM62 108.375c0-33.75 22.5-56.25 56.25-56.25h787.5c33.75 0 56.25 22.5 56.25 56.25v354.375h-900v-354.375zM708.875 361.5c0 11.25 11.25 16.875 22.5 16.875h140.625c11.25 0 22.5-5.625 22.5-16.875v-84.375c0-11.25-11.25-16.875-22.5-16.875h-140.625c-11.25 0-22.5 5.625-22.5 16.875v84.375z"  horiz-adv-x="1025" />

    
    <glyph glyph-name="ios" unicode="&#58894;" d="M517.392097 535.543431 428.783963 564.189724C428.783963 564.189724 296.493731 615.643939 197.448509 506.924273 96.176766 395.81099 103.92032 258.80636 148.226529 134.762399 192.528454 10.689874 276.884917-125.919152 369.716158-127.681517 441.443288-129.042566 447.060292-88.825216 546.909575-89.522165 546.909575-89.522165 582.770998-94.275124 635.517709-113.355515 688.265848-132.467325 733.036214-135.753551 788.109419-79.949121 866.85459-0.21137 906.240744 120.40212 906.240744 120.40212 906.240744 120.40212 774.748861 168.831464 778.273592 311.286003 781.766903 453.740541 881.610473 487.843883 881.610473 487.843883 881.610473 487.843883 806.391461 615.972418 635.517709 573.729919L517.392097 535.543431ZM512.372069 660.647096C512.372069 660.647096 493.325954 866.85099 748.556169 896 748.556169 896 765.013006 677.099649 512.372069 660.647096L512.372069 660.647096Z"  horiz-adv-x="1024" />

    
    <glyph glyph-name="yonghu" unicode="&#58880;" d="M888.126 47.497c-1.188-4.577-3.199-9.189-5.8-13.582-35.952-63.954-188.615-99.914-371.472-99.914-182.836 0-335.505 35.96-371.472 99.914-2.602 4.394-4.591 8.999-5.793 13.582l37.563 214.22c0 82.929 87.322 150.075 195.624 151.678 17.78-45.964 75.54-79.73 144.071-79.73 68.538 0 126.306 33.773 144.078 79.73 108.308-1.603 195.631-68.749 195.631-151.678l37.569-214.22zM710.683 635.395c0-53.753-21.583-112.892-56.749-159.271-19.375-25.963-43.159-47.946-69.747-62.534-22.757-12.592-47.348-19.98-73.332-19.98-25.97 0-50.555 7.389-73.332 19.98-26.574 14.588-50.358 36.571-69.741 62.534-35.158 46.379-56.749 105.518-56.749 159.271 0 109.3 89.538 197.824 199.822 197.824 110.29 0 199.828-88.532 199.828-197.825z"  horiz-adv-x="1024" />

    
    <glyph glyph-name="xiaozhishi" unicode="&#59048;" d="M879.489-14.759h-6.974c-32.617 0-59.152 27.613-59.152 61.553s26.537 61.554 59.152 61.554h2.016c0.063 0 0.127 0.004 0.19 0.004s0.127-0.004 0.19-0.004c17.392 0 31.49 14.098 31.49 31.49v631.001c0 19.151-7.674 37.361-21.609 51.274-15.045 15.023-36.323 23.631-58.402 23.631-0.043 0-0.090 0-0.132 0-173.036-0.271-628.542-1.278-633.053-1.29-44.213 0-80.183-33.601-80.183-74.902v-720.954c0-0.209 0.012-0.416 0.015-0.624-0.004-0.393-0.016-0.785-0.016-1.179 0-68.668 60.943-124.533 135.853-124.533h630.614c17.392 0 31.49 14.098 31.49 31.49s-14.099 31.489-31.49 31.489zM193.276 781.471c1.551 0.003 54.83 0.123 131.329 0.287v-252.142c0-17.391 14.099-31.49 31.49-31.49s31.49 14.099 31.49 31.49v252.277c146.793 0.314 339.385 0.713 438.771 0.868 0.013 0 0.026 0 0.038 0 5.513 0 10.576-1.902 13.899-5.218 2.075-2.071 3.127-4.326 3.127-6.704v-599.511h-594.547c-26.795 0-51.801-7.151-72.873-19.476v617.698c0.001 5.639 7.067 11.922 17.275 11.922zM176.002 46.793c0 33.941 32.69 61.554 72.873 61.554h517.502c-10.173-18.166-15.994-39.18-15.994-61.554s5.82-43.387 15.994-61.553h-517.503c-40.181 0.001-72.871 27.613-72.871 61.553z"  horiz-adv-x="1024" />

    
    <glyph glyph-name="ios1" unicode="&#58904;" d="M377.703-56.859c-65.391 0-114.609 66.094-146.953 110.391-86.484 116.016-135.703 307.266-57.656 433.828 41.484 66.797 116.016 108.984 194.766 109.688 35.156 0.703 67.5-11.25 96.328-22.5 19.688-7.031 38.672-14.063 52.031-14.063 11.953 0 29.531 6.328 50.625 14.063 34.453 12.656 77.344 28.828 122.344 24.609 33.75-1.406 117.422-12.656 172.266-87.188l6.328-9.141-10.547-6.328c-21.797-12.656-92.109-60.469-91.406-150.469v0c1.406-113.203 102.656-155.391 113.906-159.609h0.703l9.141-4.219-3.516-9.844c-6.328-18.984-26.016-69.609-63.281-120.938-36.563-49.922-78.047-106.172-145.547-106.875-31.641-0.703-52.734 7.734-73.828 16.172-20.391 8.438-42.188 16.875-75.234 16.875-35.156 0-56.953-9.141-78.75-17.578-19.688-7.734-40.078-16.172-68.203-16.875-1.406 0-2.109 0-3.516 0zM369.969 576.656c-0.703 0-1.406 0-2.109 0-71.719-0.703-139.922-39.375-177.891-99.844-73.125-118.828-25.313-300.234 56.25-410.625 40.781-54.844 81.563-104.063 133.594-101.953 24.609 0.703 42.188 7.734 61.172 15.469 22.5 9.141 47.813 18.984 86.484 18.984 37.266 0 61.172-9.844 82.969-18.281 19.688-7.734 37.969-15.469 65.391-14.766 57.656 0.703 95.625 52.734 129.375 98.438 31.641 42.891 49.922 85.078 57.656 107.578-30.234 14.063-117.422 63.281-118.125 175.078-0.703 90 61.875 142.031 92.109 162.422-49.922 59.766-120.234 68.906-149.766 69.609h-0.703c-40.781 3.516-80.859-11.25-113.906-23.203-22.5-8.438-41.484-15.469-57.656-15.469-16.875 0-36.563 7.031-59.063 15.469-25.313 9.844-55.547 21.094-85.781 21.094zM519.031 610.406c-3.516 0-6.328 0-9.844 0l-8.438 0.703-1.406 8.438c-7.734 53.438 21.094 106.172 50.625 137.813 34.453 37.266 92.109 64.688 139.922 66.797l9.844 0.703 1.406-9.141c5.625-47.813-12.656-100.547-49.219-142.031-35.156-39.375-85.781-63.281-132.891-63.281zM681.453 803.063c-40.078-4.922-87.188-28.828-115.313-59.063-23.203-25.313-48.516-68.906-45.703-112.5 40.781 0 85.781 21.797 116.719 56.25 28.828 33.047 45.703 75.938 44.297 115.313z"  horiz-adv-x="1024" />

    
    <glyph glyph-name="weixin" unicode="&#58933;" d="M606.859 556.161c27.282 0 45.514 17.396 45.514 43.319 0 26.205-18.2 43.161-45.514 43.161-27.315 0-54.73-16.955-54.73-43.161 0.034-25.922 27.447-43.319 54.73-43.319zM352.303 642.641c-27.282 0-54.863-16.955-54.863-43.161 0-25.922 27.58-43.319 54.863-43.319 27.183 0 45.382 17.396 45.382 43.319-0.033 26.206-18.2 43.161-45.382 43.161zM997.028 91.939c-5.536-3.978-7.89-10.83-5.9-17.145l15.68-49.665-64.343 33.532c-2.453 1.295-5.204 1.958-7.956 1.958-1.358 0-2.719-0.158-4.043-0.505-34.508-8.303-70.21-16.86-104.984-16.86-161.504 0-292.875 105.708-292.875 235.632 0 129.924 131.371 235.599 292.875 235.599 158.422 0 292.279-107.887 292.279-235.599 0-64.789-42.862-131.187-120.73-186.946M503.035 217.822c-10.774-0.884-21.712-1.326-32.553-1.326-36.597 0-67.559 6.031-103.36 13.072l-20.818 4.010c-3.579 0.726-7.359 0.253-10.641-1.358l-91.46-43.603 23.768 68.009c2.32 6.662-0.232 13.924-6.232 17.934-91.891 60.999-138.466 135.323-138.466 220.856 0 153.762 155.736 278.888 347.174 278.888 169.228 0 319.063-98.066 349.991-228.496-177.448-2.21-321.019-121.020-321.019-266.952 0-21.218 3.382-41.772 9.082-61.6-1.723 0.411-3.547 0.726-5.469 0.569M1150.908 278.854c0 137.028-133.46 253.787-297.284 265.942 0.233 1.705 0.331 3.473-0.066 5.241-32.851 145.869-197.537 255.838-383.108 255.838-209.704 0-380.324-139.269-380.324-310.461 0-91.847 49.226-174.6 142.509-239.862l-32.52-93.11c-2.089-6.062-0.199-12.724 4.872-16.924 3.083-2.525 6.962-3.852 10.873-3.852 2.52 0 5.071 0.569 7.426 1.673l122.089 58.19 15.050-2.904c37.592-7.357 70.044-13.733 110.023-13.733 11.767 0 23.702 0.505 35.404 1.453 4.74 0.379 8.752 2.652 11.469 5.936 44.023-104.918 165.35-180.662 308.124-180.662 36.564 0 73.592 8.399 106.807 16.324l94.111-49.001c2.485-1.295 5.239-1.958 7.956-1.958 3.712 0 7.426 1.2 10.409 3.504 5.239 4.042 7.392 10.703 5.437 16.797l-24.034 76.123c80.586 60.652 124.775 133.207 124.775 205.447zM688.738 356.713c0-17.429 18.2-34.636 36.398-34.636 27.349 0 45.415 17.207 45.415 34.636 0 17.333-18.067 34.762-45.415 34.762-18.2 0-36.398-17.46-36.398-34.762zM888.96 356.713c0-17.429 18.2-34.636 36.133-34.636 27.248 0 45.647 17.207 45.647 34.636 0 17.333-18.365 34.762-45.647 34.762-17.934 0-36.133-17.46-36.133-34.762z"  horiz-adv-x="1309" />

    
    <glyph glyph-name="icon-receive" unicode="&#58925;" d="M301.622 293.053l147.202-130.528c0.688-1.059 1.624-2.558 3.246-3.996 6.935-6.12 16.115-9.494 26.544-9.494h1.063c9.866 0 19.109 3.374 26.105 9.557 1.625 1.5 2.624 2.998 3.436 4.433l233.511 263.298c7.245 6.435 11.242 15.114 11.242 24.359 0 9.243-3.997 17.86-11.242 24.354-14.117 12.367-37.409 13.118-52.896-0.749l-211.718-242.563-124.344 110.109c-14.117 12.428-38.159 12.428-52.149 0-7.307-6.436-11.304-15.179-11.304-24.421s3.998-17.924 11.304-24.357zM849.634 803.297c-11.865 17.799-31.849 28.479-53.21 28.479l-571.071-0c-21.362 0-41.346-10.679-53.211-28.479l-108.1-163.175v-639.622c0-35.165 28.792-63.953 63.953-63.953h767.319c35.161 0 63.953 28.788 63.953 63.953l0 639.622-109.632 163.175zM895.314 0.5h-767.319v575.67h767.319l-0-575.67zM127.995 640.121l93.548 127.289 582.125 0.5 91.646-127.789h-767.319z"  horiz-adv-x="1024" />

    
    <glyph glyph-name="dongtai" unicode="&#59145;" d="M828.758 246.76099999999997h-633.577c-23.288 0-42.222 18.876-42.222 42.222s18.933 42.281 42.222 42.281h633.577c23.288 0 42.281-18.933 42.281-42.281s-18.992-42.222-42.281-42.222zM828.758 77.81100000000004h-633.577c-23.288 0-42.222 18.933-42.222 42.222s18.933 42.281 42.222 42.281h633.577c23.288 0 42.281-18.933 42.281-42.281 0-23.288-18.992-42.222-42.281-42.222zM237.464 690.246c46.638 0 84.446-37.809 84.446-84.504s-37.809-84.446-84.446-84.446c-46.693 0-84.504 37.809-84.504 84.504s37.809 84.446 84.504 84.446zM427.496 647.966h147.81c23.288 0 42.281-18.933 42.281-42.222 0-23.347-18.933-42.281-42.281-42.281h-147.81c-23.288 0-42.222 18.933-42.222 42.281s18.933 42.222 42.222 42.222zM807.677 795.8340000000001h-591.353c-93.273 0-168.95-75.618-168.95-168.95v-485.709c0-93.332 75.675-168.95 168.95-168.95h591.353c93.273 0 168.95 75.618 168.95 168.95v485.709c0 93.332-75.675 168.95-168.95 168.95z"  horiz-adv-x="1024" />

    
    <glyph glyph-name="andriod" unicode="&#59012;" d="M679.045 735.228l46.005 79.683c1.329 2.301 0.759 5.118-1.271 6.29l-22.777 13.149c-2.030 1.173-4.753 0.258-6.082-2.044l-45.886-79.477c-39.675 19.918-86.659 31.453-137.035 31.453-49.309 0-95.37-11.051-134.505-30.197l-45.161 78.221c-1.329 2.301-4.052 3.216-6.084 2.044l-22.776-13.149c-2.031-1.173-2.601-3.989-1.272-6.29l45.095-78.106c-56.519-37.542-92.488-94.016-92.488-157.183h514.381c-0 62.289-34.978 118.069-90.145 155.606zM294.322 614.415c8.476 30.805 28.165 59.373 57.48 82.701 42.445 33.775 99.336 52.376 160.198 52.376s117.753-18.601 160.198-52.376c29.314-23.327 49.005-51.896 57.48-82.701h-435.355zM392.613 665.58h34.792v-34.792h-34.792v34.792zM624.904 665.58h34.792v-34.792h-34.792v34.792zM861.81 519.636h-26.3c-2.344 0.002-4.247-5.824-4.245-13.009v-302.848c-0.002-7.187 1.9-13.011 4.245-13.013h26.3c2.344 0 4.245 5.826 4.247 13.013l0 302.848c-0.002 7.186-1.902 13.009-4.247 13.009zM186.427 519.636h-26.3c-2.344 0.002-4.247-5.824-4.245-13.009v-302.848c-0.002-7.187 1.9-13.011 4.245-13.013h26.3c2.344 0 4.245 5.826 4.247 13.013v302.848c-0.002 7.186-1.902 13.009-4.247 13.009zM763.050 550.97h-502.102c-3.39 0-6.14-2.552-6.14-5.699v-438.857c0-3.147 2.75-5.699 6.14-5.699h123.13v-156.552c-0.001-3.876 1.9-7.018 4.246-7.019h26.3c2.344 0 4.245 3.143 4.246 7.019v156.552h187.265v-156.552c-0.002-3.876 1.9-7.018 4.245-7.019h26.3c2.344 0 4.245 3.143 4.247 7.019l0 156.552h122.121c3.39 0 6.14 2.552 6.14 5.699l-0 438.857c0.002 3.147-2.748 5.699-6.138 5.699zM734.398 133.012h-444.796v385.662h444.796v-385.662z"  horiz-adv-x="1024" />

    
    <glyph glyph-name="yonghu3" unicode="&#58905;" d="M608.085-94.481h-190.498c-180.702 0-323.413 0-323.413 93.73v18.739c0 175.65 145.101 318.532 323.413 318.532h190.498c178.313 0 323.413-142.882 323.413-318.532v-18.739c-0.034-93.73-149.914-93.73-323.413-93.73zM417.553 280.337c-147.319 0-267.196-117.658-267.196-262.315v-18.739c0-37.513 154.419-37.513 267.196-37.513h190.498c93.355 0 267.196 0 267.196 37.513v18.739c0 144.657-119.876 262.315-267.196 262.315h-190.498zM503.296 355.328c-141.585 0-256.717 113.493-256.717 252.996s115.132 252.962 256.717 252.962 256.717-113.459 256.717-252.962-115.166-252.996-256.717-252.996zM302.797 608.324c0-108.476 89.941-196.779 200.499-196.779s200.499 88.269 200.499 196.779-89.941 196.745-200.499 196.745-200.499-88.269-200.499-196.745z"  horiz-adv-x="1024" />

    
    <glyph glyph-name="luyouqi" unicode="&#59138;" d="M0-42.666c0-47.146 38.186-85.334 85.334-85.334l853.334 0c47.146 0 85.334 38.186 85.334 85.334l-0.002 234.666c0 47.146-38.186 85.334-85.334 85.334l-256 0 0 224c0 29.44-23.894 53.334-53.334 53.334s-53.332-23.894-53.332-53.334l0-224-490.666 0c-47.146 0-85.334-38.186-85.334-85.334l0-234.666zM106.666 74.666c0 29.44 23.894 53.334 53.334 53.334s53.334-23.894 53.334-53.334-23.894-53.332-53.334-53.332-53.334 23.892-53.334 53.332zM298.666 74.666c0 29.44 23.894 53.334 53.334 53.334s53.334-23.894 53.334-53.334-23.894-53.332-53.334-53.332-53.334 23.892-53.334 53.332zM629.334 725.334c-123.734 0-224-100.268-224-224 0-29.44 23.894-53.334 53.334-53.334s53.334 23.894 53.334 53.334c0 64.854 52.48 117.334 117.334 117.334s117.334-52.48 117.334-117.334c0-29.44 23.894-53.334 53.334-53.334s53.334 23.894 53.334 53.334c-0.004 123.732-100.272 224-224.004 224zM629.334 896c-218.028 0-394.668-176.64-394.668-394.666 0-29.44 23.894-53.334 53.334-53.334s53.334 23.894 53.334 53.334c0 159.146 128.852 288 288 288s288-128.854 288-288c0-29.44 23.894-53.334 53.334-53.334s53.334 23.894 53.334 53.334c-0.002 218.026-176.62 394.666-394.668 394.666z"  horiz-adv-x="1025" />

    
    <glyph glyph-name="pingtaiapicanshu" unicode="&#59060;" d="M880.199 195.633h-182.363l-37.913 68.344-158.878-66.572 37.716-37.716-51.694-180.647-180.647-51.694-128.953 128.953 51.694 180.647 180.675 51.694 49.753-49.753 173.841 72.844-26.747 48.206 45.534 82.041-9.084-9.084-218.728 124.987v-33.778l-164.306-91.181-164.306 91.181v182.363l164.306 91.181 164.306-91.181v-84.066l246.037-147.544 27.422 49.359h182.363l91.181-164.306-91.181-164.278z"  horiz-adv-x="1024" />

    
    <glyph glyph-name="yingxiao" unicode="&#59125;" d="M501.776 628.601h-349.165c-30.175 0-54.864-24.691-54.864-54.87v-271.845c0-30.177 24.691-54.868 54.864-54.868h35.972l181.462-253.084c21.775-30.373 64.439-37.407 94.811-15.632 30.371 21.777 37.405 64.445 15.631 94.813l-124.687 173.903h145.975c30.175 0 54.864 24.691 54.864 54.868v271.845c0.002 30.179-24.688 54.87-54.863 54.87zM905.706 802.355c-5.705 0-12.269-2.213-19.231-6.879l-209.25-140.221c-21.879-14.66-39.778-48.204-39.778-74.54v-285.813c0-26.339 18.353-59.171 40.789-72.967l207.228-127.41c6.774-4.165 13.169-6.138 18.804-6.138 13.036 0 21.985 10.554 21.985 28.941v656.921c0 17.957-8.318 28.111-20.547 28.107z"  horiz-adv-x="1024" />

    
    <glyph glyph-name="liwu" unicode="&#58911;" d="M516.266667 524.8 388.266667 524.8C281.6 524.8 170.666667 580.266667 170.666667 691.2c0 42.666667 25.6 89.6 68.266667 115.2 42.666667 25.6 98.133333 25.6 153.6 0 115.2-59.733333 157.866667-234.666667 157.866667-243.2 0-8.533333 0-21.333333-4.266667-25.6C537.6 529.066667 524.8 524.8 516.266667 524.8zM307.2 763.733333c-12.8 0-25.6-4.266667-38.4-12.8-25.6-17.066667-38.4-42.666667-38.4-59.733333 0-68.266667 81.066667-102.4 153.6-102.4l89.6 0c-17.066667 51.2-51.2 132.266667-115.2 162.133333C341.333333 759.466667 324.266667 763.733333 307.2 763.733333zM635.733333 524.8l-132.266667 0c-8.533333 0-17.066667 4.266667-25.6 12.8-4.266667 8.533333-8.533333 17.066667-4.266667 25.6 0 8.533333 42.666667 183.466667 157.866667 243.2l0 0c55.466667 25.6 106.666667 25.6 153.6 0C827.733333 780.8 853.333333 733.866667 853.333333 691.2 853.333333 580.266667 742.4 524.8 635.733333 524.8zM550.4 588.8l89.6 0c72.533333 0 153.6 38.4 153.6 102.4 0 17.066667-12.8 46.933333-38.4 59.733333C729.6 768 699.733333 768 665.6 750.933333l0 0C605.866667 721.066667 567.466667 640 550.4 588.8zM896 345.6 128 345.6c-17.066667 0-34.133333 12.8-34.133333 34.133333L93.866667 512c0 42.666667 34.133333 72.533333 76.8 72.533333l682.666667 0c42.666667 0 76.8-34.133333 76.8-72.533333l0-136.533333C925.866667 362.666667 913.066667 345.6 896 345.6zM162.133333 409.6l704 0L866.133333 512c0 4.266667-4.266667 8.533333-8.533333 8.533333L170.666667 520.533333C166.4 524.8 162.133333 520.533333 162.133333 512L162.133333 409.6zM802.133333-59.733333 221.866667-59.733333c-42.666667 0-76.8 34.133333-76.8 76.8l0 358.4c0 17.066667 12.8 34.133333 34.133333 34.133333l665.6 0c17.066667 0 34.133333-12.8 34.133333-34.133333l0-358.4C878.933333-25.6 844.8-59.733333 802.133333-59.733333zM209.066667 341.333333l0-328.533333c0-4.266667 4.266667-8.533333 8.533333-8.533333l580.266667 0c4.266667 0 8.533333 4.266667 8.533333 8.533333L806.4 341.333333 209.066667 341.333333zM512-59.733333c-17.066667 0-34.133333 12.8-34.133333 34.133333L477.866667 554.666667c0 17.066667 12.8 34.133333 34.133333 34.133333s34.133333-12.8 34.133333-34.133333l0-584.533333C546.133333-46.933333 529.066667-59.733333 512-59.733333z"  horiz-adv-x="1024" />

    
    <glyph glyph-name="ziyoupailie" unicode="&#58940;" d="M512 827.585c-245.543 0-444.595-198.6-444.595-443.585s199.053-443.585 444.595-443.585 444.595 198.6 444.595 443.585-199.052 443.585-444.595 443.585zM330.662 256.962c0-13.461-11.014-24.475-24.475-24.475h-2.244c-13.461 0-24.475 11.014-24.475 24.475v328.403c0 13.461 11.014 24.475 24.475 24.475h2.244c13.461 0 24.475-11.014 24.475-24.475v-328.403zM434.129 182.635c0-13.461-11.014-24.475-24.475-24.475h-2.244c-13.461 0-24.475 11.014-24.475 24.475l0.001 328.403c0 13.461 11.014 24.475 24.475 24.475h2.244c13.461 0 24.475-11.014 24.475-24.475l-0.001-328.403zM537.597 256.962c0-13.461-11.014-24.475-24.475-24.475h-2.244c-13.461 0-24.475 11.014-24.475 24.475v328.403c0 13.461 11.014 24.475 24.475 24.475h2.244c13.461 0 24.475-11.014 24.475-24.475v-328.403zM641.064 182.635c0-13.461-11.014-24.475-24.475-24.475h-2.243c-13.461 0-24.475 11.014-24.475 24.475l0.001 328.403c0 13.461 11.014 24.475 24.475 24.475h2.244c13.461 0 24.475-11.014 24.475-24.475l-0.001-328.403zM744.532 256.962c0-13.461-11.014-24.475-24.475-24.475h-2.244c-13.461 0-24.475 11.014-24.475 24.475v328.403c0 13.461 11.014 24.475 24.475 24.475h2.244c13.461 0 24.475-11.014 24.475-24.475v-328.403z"  horiz-adv-x="1024" />

    
    <glyph glyph-name="gantanhao1" unicode="&#58991;" d="M438.867473-54.855661c0-40.390467 32.753778-73.144246 73.144246-73.144246 40.390467 0 73.144246 32.753778 73.144246 73.144246 0 40.390467-32.753778 73.144246-73.144246 73.144246C471.60172 18.288585 438.867473-14.465193 438.867473-54.855661zM605.624634 802.387084C605.624634 854.086101 563.710736 896 511.992188 896s-93.612916-41.913899-93.612916-93.612916c0-1.874993 0.078125-3.730454 0.175781-5.585916l-0.019531 0 20.312421-597.146105c0-40.390467 32.753778-73.144246 73.144246-73.144246s73.144246 32.753778 73.144246 73.144246l20.312421 597.146105-0.019531 0C605.54651 798.65663 605.624634 800.512092 605.624634 802.387084z"  horiz-adv-x="1024" />

    
    <glyph glyph-name="ickefu" unicode="&#58986;" d="M223.678 544.369v0c-61.426-16.882-106.812-74.351-106.812-142.32 0-39.3 15.353-76.322 43.333-104.299 16.344-16.421 35.655-28.433 56.712-35.579 1.369-34.664 8.974-68.343 22.806-100.194 14.674-33.836 35.732-64.319 62.489-90.392 26.762-26.077 57.852-46.527 92.521-60.818 34.512-14.295 71.077-21.743 108.783-22.274h4.34c51.997 0.988 93.96 43.558 93.96 95.785 0 53.678-44.318 97.163-98.294 95.793-50.861-1.37-92.062-42.801-93.201-93.658-0.226-10.948 1.369-21.517 4.563-31.402-29.042 11.71-55.803 29.042-78.687 51.393-45.615 44.472-70.778 103.618-70.778 166.487v209.523c0 62.867 25.090 121.938 70.777 166.487 45.843 44.625 106.813 69.256 171.736 69.256 64.845 0 125.888-24.631 171.812-69.332 45.608-44.473 70.77-103.615 70.77-166.492l-1.365-200.921c-0.152-15.511 14.143-27.145 29.344-23.95 27.518 5.703 52.914 19.54 73.513 40.138 27.975 28.055 43.333 65.076 43.333 104.303 0 66.671-43.487 123.158-102.934 141.401-3.879 17.030-9.274 33.757-16.346 50.026-14.67 33.826-35.726 64.31-62.489 90.386-26.762 26.077-57.852 46.522-92.517 60.817-35.886 14.752-73.897 22.275-113.125 22.275-39.223 0-77.317-7.523-113.194-22.274-34.591-14.295-65.76-34.741-92.521-60.817-26.758-26.078-47.82-56.483-62.489-90.386-6.921-15.891-12.242-32.241-16.039-48.96v0zM817.564 332.035v0c-5.707-5.699-11.861-10.565-18.476-14.669v164.963c0 1.752-0.077 3.425-0.077 5.096 28.51-17.179 47.665-49.031 47.665-85.525 0-26.227-10.34-51.087-29.113-69.865v0zM504.502 37.070v0c-25.235 0.833-45.537 21.593-45.612 47.135 0 26.001 21.135 47.131 47.135 47.131 26.001 0 47.131-21.129 47.131-47.131 0-25.847-20.828-46.829-46.522-47.135h-2.131zM194.637 332.035v0c-18.78 18.779-29.118 43.639-29.118 69.865 0 38.012 20.833 71.079 51.239 87.58-0.072-2.361-0.072-4.789-0.072-7.15v-167.017c-7.908 4.406-15.36 10.033-22.049 16.723v0zM194.637 332.035z"  horiz-adv-x="1024" />

    
    <glyph glyph-name="weixin2" unicode="&#59017;" d="M691.537 577.287c11.305 0 22.491-0.83 33.587-2.065-30.178 140.519-180.417 244.922-351.905 244.922-191.721 0-348.77-130.677-348.77-296.612 0-95.781 52.25-174.437 139.561-235.444l-34.884-104.916 121.923 61.138c43.628-8.634 78.631-17.513 122.168-17.513 10.945 0 21.796 0.541 32.559 1.386-6.814 23.317-10.762 47.739-10.762 73.08 0.001 152.368 130.849 276.023 296.521 276.023zM504.01 671.847c26.261 0 43.659-17.277 43.659-43.52 0-26.139-17.396-43.655-43.659-43.655-26.14 0-52.371 17.516-52.371 43.655 0 26.244 26.229 43.52 52.371 43.52zM259.918 584.672c-26.137 0-52.519 17.516-52.519 43.655 0 26.243 26.381 43.52 52.519 43.52 26.139 0 43.537-17.277 43.537-43.52 0-26.139-17.397-43.655-43.537-43.655zM1009.856 305.45500000000004c0 139.436-139.534 253.094-296.248 253.094-165.943 0-296.639-113.657-296.639-253.094 0-139.675 130.698-253.094 296.639-253.094 34.733 0 69.765 8.758 104.646 17.501l95.663-52.383-26.229 87.157c70.007 52.52 122.167 122.164 122.167 200.819zM617.43 349.095c-17.365 0-34.884 17.277-34.884 34.897 0 17.377 17.518 34.879 34.884 34.879 26.381 0 43.659-17.501 43.659-34.879 0-17.622-17.278-34.897-43.659-34.897zM809.273 349.095c-17.247 0-34.643 17.277-34.643 34.897 0 17.377 17.396 34.879 34.643 34.879 26.139 0 43.654-17.501 43.654-34.879 0.001-17.622-17.514-34.897-43.654-34.897z"  horiz-adv-x="1024" />

    
    <glyph glyph-name="taocan" unicode="&#59376;" d="M1019.94 573.031c0 31.594-26.174 57.299-58.345 57.299h-123.817l10.375 10.091c29.52 28.692 44.486 63.627 44.486 103.824 0 52.35-30.415 108.29-115.777 108.29-113.819 0-210.549-119.239-258.081-190.315l-4.889-7.314-4.883 7.316c-38.181 57.222-140.053 190.311-261.020 190.311-85.392 0-115.819-55.94-115.819-108.29 0-40.107 15.311-75.026 45.504-103.786l10.637-10.132h-125.906c-32.173 0-58.348-25.707-58.348-57.299v-183.225h64.749v-417.066c0-31.585 26.217-57.277 58.438-57.277h770.375c32.171 0 58.345 25.691 58.345 57.277v417.066h63.98l-0.004 183.227zM184.682 745.247c0 38.119 20.117 55.871 63.308 55.871 95.694 0 187.732-123.646 213.662-161.541l6.292-9.196-119.917 0.001c-80.294-0.001-163.345 42.963-163.345 114.865zM485.765-33.138h-364.397v422.943h364.397v-422.943zM485.765 441.229h-429.241v137.679h429.239v-137.679zM566.193 639.577c33.266 48.571 120.389 161.541 210.669 161.541 42.597 0 63.308-18.602 63.308-56.868 0-73.959-82.641-113.868-160.399-113.868l-119.878-0.001 6.301 9.196zM903.49-33.138h-365.255v422.943h365.254l0.001-422.943zM967.47 441.229h-429.234v137.679h429.234v-137.679z"  horiz-adv-x="1024" />

    
    <glyph glyph-name="suduhuojianfill" unicode="&#58891;" d="M997.984 851.296c-11.04 13.088-28.16 20.288-48.256 20.288-8.32 0-15.36-1.184-18.464-1.824l-192.448-38.656c-86.72-17.44-114.752-47.488-121.184-56.064l0.64-0.224-184.352-177.248-231.04-36.16-167.36-167.392c-5.344-5.248-27.488-28.48-18.336-57.376 5.92-18.72 17.376-42.208 39.072-46.368l103.744 0 0-249.024c0 0 108.8 0 207.52 0 17.664 0 49.888-0.896 62.272 0l0-103.744c6.432-22.56 9.856-41.504 41.504-41.504 13.44 0 28.096 12.224 41.504 20.768l166.016 166.016 46.432 234.176 196.608 189.088c20.256 19.488 33.664 44.192 38.56 70.496l48.224 225.312c5.184 24.256-2.944 40.288-10.688 49.472zM782.496 601.888c-34.368 0-62.24 27.872-62.24 62.24s27.872 62.272 62.24 62.272 62.24-27.872 62.24-62.272c0-34.368-27.872-62.24-62.24-62.24z"  horiz-adv-x="1024" />

    
    <glyph glyph-name="shoujihao" unicode="&#59049;" d="M805.237677 888.774995 218.769548 888.774995c-24.29408 0-43.985832-19.691752-43.985832-43.985832l0-920.021336c0-24.301305 19.691752-43.993057 43.985832-43.993057l586.46813 0c24.29408 0 43.985832 19.691752 43.985832 43.993057L849.223509 844.789162C849.223509 869.083243 829.528145 888.774995 805.237677 888.774995L805.237677 888.774995zM805.237677 844.789162l0-718.425626L218.769548 126.363536 218.769548 844.789162 805.237677 844.789162 805.237677 844.789162zM218.769548-75.232174l0 157.609878 586.46813 0 0-157.609878L218.769548-75.232174 218.769548-75.232174zM460.6844 9.061963c0-13.427672 5.534354-26.77587 15.028011-36.287589 9.504494-9.490044 22.852692-15.028011 36.283977-15.028011 13.442122 0 26.79032 5.537967 36.287589 15.028011 9.504494 9.511719 15.031624 22.859917 15.031624 36.287589 0 13.442122-5.527129 26.797545-15.031624 36.287589-9.497269 9.504494-22.845467 15.028011-36.287589 15.028011-13.431285 0-26.783095-5.523517-36.283977-15.028011C466.222366 35.859508 460.6844 22.504085 460.6844 9.061963L460.6844 9.061963zM460.6844 9.061963"  horiz-adv-x="1024" />

    
    <glyph glyph-name="chongzhi" unicode="&#59111;" d="M511.999 833.613c-248.309 0-449.629-201.272-449.629-449.611 0-248.289 201.322-449.609 449.629-449.609 248.299 0 449.629 201.32 449.629 449.609C961.628 632.341 760.298 833.613 511.999 833.613zM777.073 213.902c-2.02-12.11-4.83-23-8.255-32.66-8.25-36.71-36.88-54.01-85.8-51.9l-67.18 0c-50.93-2.11-75.785 21.08-74.38 69.46l0 157.72-75.435-2.07c8.252-118.24-54.447-198.15-188.107-239.689-2.108 4.22-5.005 9.05-8.782 14.58-3.818 5.53-8.473 12.12-13.962 19.67-3.467 4.87-6.235 8.87-8.255 11.94-2.107 3.17-3.817 6.06-5.18 8.87 65.425 20.73 108.192 43.21 128.127 67.4 22.745 22.79 34.117 60.2 34.117 112.05l-24.81 0c-17.915-1.36-32.227-2.76-42.855-4.17-10.712-1.36-18.792-2.72-24.325-4.13l-29.947 57.08c20.637 8.96 38.552 21.077 53.747 36.267 33.72 27.005 66.83 58.485 99.232 94.4L248.937 528.72l0 57.08 239.832 0c-0.705 2.81-2.81 9.355-6.237 19.715-3.425 9.702-6.19 17.957-8.255 24.895-2.107 6.937-3.775 12.12-5.18 15.542l68.232 7.29c0.705-4.128 2.2-9.66 4.66-16.597 2.37-6.938 5.31-15.895 8.78-26.96l4.125-14.532c0.705-4.17 1.365-7.245 2.065-9.352l218.094 0 0-57.08L515.639 528.721c-51.02-51.195-95.105-92.292-132.342-123.467l243.962 6.235c-6.24 8.34-16.905 19.055-32.055 32.182-6.895 6.895-12.905 12.602-18.095 17.125-5.18 4.525-9.48 8.475-12.905 11.9l40.31 31.175c26.165-22.13 52.515-44.962 79.035-68.497 26.52-23.532 53.22-47.375 80.09-71.57l-46.455-41.53-36.18 36.35-78.595-2.11 0-140.06c-2.02-25.55 10.71-37.32 38.285-35.21l31.005 0c26.87 0 42.015 10.36 45.485 31.08 2.02 13.17 3.775 24.9 5.135 35.3 1.36 10.37 2.42 19.67 3.12 28.02 9.615-4.22 19.1-8.17 28.41-11.95 9.31-3.82 18.75-7.46 28.41-10.89C780.893 238.932 779.178 225.982 777.073 213.902z"  horiz-adv-x="1024" />

    
    <glyph glyph-name="qq" unicode="&#59223;" d="M869.535 427.691c0 0 24.758 53.885-21.117 114.324 0 0-14.563 286.174-313.844 286.174-299.281 0-313.117-279.62-313.117-279.62-50.244-41.506-28.399-111.411-28.399-111.411-152.189-118.693-127.431-281.805-87.381-300.737 40.778-18.205 71.361 32.039 71.361 32.039s12.379-44.419 46.604-64.807c-58.982-23.301-46.604-84.468-46.604-84.468s37.866-147.82 341.516-37.866l26.943-5.098c316.757-84.468 332.778 48.788 332.778 48.788s13.836 44.419-62.623 80.099c21.117 17.476 29.127 50.244 29.127 50.244s24.758-33.497 50.244-28.399c25.486 5.098 120.149 71.361-25.486 300.737zM889.196 173.556c0 0-22.574 34.953-25.486 45.147-2.913 10.194-26.943 28.399-42.962-8.738-16.020-37.137-26.943-72.818-53.885-91.022-26.943-18.205-18.932-31.312 11.651-44.419 30.583-13.107 64.080-34.953 58.254-46.604-5.825-11.651-95.391-69.905-277.436-7.282l-55.342 7.282c-104.129-80.828-277.436-34.953-282.533 1.456-4.369 36.409 49.516 37.137 49.516 37.137s50.973 19.661 2.185 49.516c-48.788 30.583-64.807 107.771-64.807 107.771s-25.486 39.322-42.235 5.825c-16.748-33.497-40.050-45.147-40.050-45.147s-25.486 144.908 120.149 234.474c0 0-44.419 56.798 21.845 112.867v0c0 0-5.098 250.493 261.415 250.493s277.436-259.959 277.436-259.959c45.147-45.147 18.205-100.489 18.205-100.489 123.062-185.685 64.080-248.308 64.080-248.308z"  horiz-adv-x="1024" />

    
    <glyph glyph-name="duxiangrenzhengbiaoshi" unicode="&#58909;" d="M869.963 610.129c-59.446 0-107.811-48.365-107.811-107.811 0-26.478 9.636-50.723 25.534-69.51l-91.541-91.541-139.782 258.332c34.561 17.979 58.258 54.067 58.258 95.645 0 59.446-48.365 107.811-107.811 107.811s-107.811-48.365-107.811-107.811c0-41.314 23.386-77.229 57.59-95.323l-139.954-258.655-88.716 88.72c-0.809 0.807-1.718 1.437-2.565 2.18 16.233 18.877 26.116 43.361 26.116 70.15 0 59.446-48.365 107.811-107.811 107.811s-107.811-48.365-107.811-107.811c0-58.915 47.523-106.878 106.237-107.731 0.005-4.151 0.356-8.347 1.419-12.554l80.13-316.679c5.621-75.5 148.645-102.591 282.757-102.591s277.136 27.089 282.757 102.591l81.404 321.717c0.636 2.513 1.026 5.027 1.269 7.531 58.585 1.005 105.954 48.897 105.954 107.717 0 59.446-48.365 107.811-107.812 107.811zM455.741 695.244c0 28.16 22.908 51.068 51.068 51.068s51.068-22.908 51.068-51.068-22.908-51.068-51.068-51.068c-28.16 0-51.068 22.908-51.068 51.068zM143.655 451.249c-28.16 0-51.068 22.908-51.068 51.068s22.908 51.068 51.068 51.068 51.068-22.908 51.068-51.068c0-28.16-22.908-51.068-51.068-51.068zM506.388 19.505c-164.798 0-224.899 39.787-226.285 50.432 1.386 10.689 61.486 50.47 226.285 50.47 164.687 0 224.82-39.731 226.285-50.448-1.463-10.722-61.597-50.453-226.285-50.453zM747.514 132.158c-53.231 32.263-149.258 44.992-241.124 44.992s-187.894-12.727-241.124-44.992l-61.053 241.292 99.211-99.211c6.329-6.339 15.338-9.326 24.149-8.014 8.867 1.292 16.602 6.694 20.869 14.567l157.949 291.906 157.95-291.905c4.267-7.874 12.002-13.277 20.869-14.567 8.8-1.275 17.81 1.679 24.149 8.014l99.211 99.211-61.054-241.293zM869.963 451.249c-28.16 0-51.068 22.908-51.068 51.068s22.908 51.068 51.068 51.068c28.16 0 51.068-22.908 51.068-51.068 0.001-28.16-22.907-51.068-51.068-51.068z"  horiz-adv-x="1024" />

    
    <glyph glyph-name="pingbandiannao" unicode="&#58957;" d="M905.75 721.5L118.25 721.5C84.5 721.5 62 693.375 62 665.25l0-506.25c0-33.75 22.5-56.25 56.25-56.25l787.5 0c33.75 0 56.25 22.5 56.25 56.25L962 665.25C962 693.375 939.5 721.5 905.75 721.5zM174.5 327.75L118.25 327.75 118.25 496.5l56.25 0L174.5 327.75zM894.5 170.25L230.75 170.25 230.75 654l663.75 0L894.5 170.25z"  horiz-adv-x="1024" />

    
    </font>
</defs>
</svg>
